<svg width="222" height="244" viewBox="0 0 222 244" fill="none" xmlns="http://www.w3.org/2000/svg">
<g clip-path="url(#clip0_596_658)">
<path opacity="0.1" d="M111 244C172.304 244 222 194.212 222 132.796C222 71.3799 172.304 21.5922 111 21.5922C49.6965 21.5922 0 71.3799 0 132.796C0 194.212 49.6965 244 111 244Z" fill="#367CFF"/>
<path d="M74.3363 62.9436C74.2743 62.9435 74.2136 62.9263 74.1608 62.894C74.1079 62.8616 74.0649 62.8153 74.0365 62.7602C74.0081 62.705 73.9954 62.6431 73.9997 62.5812C74.004 62.5193 74.0253 62.4598 74.0611 62.4091C74.1233 62.3204 80.2341 53.4703 73.4126 45.4023C72.2051 43.9665 70.6988 42.8127 68.9992 42.0218C67.2996 41.2309 65.4479 40.822 63.5739 40.8238H63.4839C64.1317 43.0783 64.0161 45.0828 63.0988 46.6206C62.7079 47.3156 62.1311 47.8873 61.4334 48.2715C60.7356 48.6557 59.9446 48.8371 59.1495 48.7952C58.4914 48.7412 57.8633 48.4961 57.3421 48.0899C56.821 47.6837 56.4294 47.134 56.2154 46.5082C55.4652 44.5477 56.2493 42.6468 58.3154 41.4216C59.6245 40.6984 61.0791 40.2793 62.5717 40.1954C62.0863 38.9056 61.455 37.6757 60.6902 36.5298C58.2271 32.7612 53.7378 30.1527 48.3735 29.3726C43.8278 28.7114 39.471 29.4898 37.273 31.3548C37.2046 31.4129 37.116 31.4414 37.0266 31.434C36.9372 31.4266 36.8544 31.3839 36.7965 31.3153C36.7385 31.2468 36.7101 31.158 36.7175 31.0685C36.7248 30.9789 36.7674 30.896 36.8359 30.8379C39.1752 28.853 43.7419 28.014 48.4706 28.7023C54.0269 29.5101 58.6866 32.228 61.2562 36.1589C62.0893 37.4054 62.7669 38.7494 63.274 40.1609C65.2952 40.1122 67.3015 40.5185 69.1452 41.3498C70.9888 42.181 72.6228 43.4161 73.9269 44.964C81.0926 53.4384 74.6768 62.7082 74.6112 62.8007C74.58 62.8447 74.5388 62.8807 74.491 62.9055C74.4432 62.9304 74.3902 62.9434 74.3363 62.9436ZM62.7912 40.8498C61.3439 40.9113 59.9304 41.3065 58.6606 42.0049C56.8768 43.0627 56.2161 44.6157 56.8474 46.266C57.0183 46.7717 57.3327 47.2165 57.7521 47.5459C58.1715 47.8754 58.6777 48.0751 59.2087 48.1208C59.8772 48.1508 60.5408 47.9939 61.1254 47.6676C61.71 47.3414 62.1925 46.8587 62.519 46.2734C63.3622 44.861 63.4396 42.9838 62.7912 40.8498Z" fill="#292A2E"/>
<path d="M31.4383 36.8191C30.8644 36.9913 30.246 36.9323 29.7148 36.6546C29.1837 36.3769 28.7817 35.9024 28.5946 35.3322C28.4074 34.762 28.4498 34.1411 28.7127 33.6018C28.9757 33.0625 29.4384 32.6473 30.0023 32.4446C30.5662 32.2419 31.1869 32.2678 31.7321 32.5167C32.2772 32.7657 32.7039 33.218 32.9212 33.7774C33.1384 34.3367 33.1292 34.959 32.8953 35.5116C32.6615 36.0642 32.2216 36.5036 31.6692 36.7361C31.5937 36.7678 31.5167 36.7955 31.4383 36.8191ZM30.3141 33.0535C30.2593 33.0702 30.2054 33.0897 30.1525 33.1118C29.7631 33.276 29.453 33.586 29.2884 33.9759C29.1237 34.3657 29.1175 34.8046 29.2711 35.1989C29.4246 35.5933 29.7258 35.912 30.1104 36.0873C30.495 36.2625 30.9328 36.2803 31.3303 36.137C31.7279 35.9937 32.0539 35.7005 32.2389 35.3199C32.424 34.9394 32.4534 34.5015 32.3209 34.0995C32.1884 33.6976 31.9045 33.3633 31.5297 33.1679C31.1549 32.9725 30.7187 32.9315 30.3141 33.0535Z" fill="#292A2E"/>
<path d="M31.4341 31.5086C30.8906 31.671 30.3063 31.6265 29.7936 31.3835C29.2809 31.1405 28.876 30.7163 28.6566 30.1923C28.4807 29.7722 28.433 29.3093 28.5197 28.862C28.6064 28.4148 28.8235 28.0034 29.1436 27.6798C29.4637 27.3562 29.8724 27.135 30.318 27.0441C30.7636 26.9532 31.2261 26.9968 31.6469 27.1692C32.0678 27.3417 32.4282 27.6353 32.6826 28.013C32.9369 28.3906 33.0737 28.8354 33.0757 29.2909C33.0777 29.7465 32.9448 30.1924 32.6938 30.5723C32.4428 30.9522 32.0851 31.2491 31.6657 31.4252C31.59 31.4569 31.5127 31.4847 31.4341 31.5086ZM30.3113 27.744C30.256 27.7607 30.2016 27.7802 30.1483 27.8026C29.7516 27.9694 29.4373 28.2873 29.2744 28.6862C29.1115 29.0852 29.1134 29.5326 29.2797 29.9301C29.401 30.2199 29.6035 30.4682 29.8627 30.6451C30.1219 30.822 30.4267 30.9198 30.7403 30.9268C31.0538 30.9338 31.3627 30.8496 31.6295 30.6844C31.8962 30.5193 32.1096 30.2802 32.2436 29.9961C32.3776 29.712 32.4266 29.3952 32.3846 29.0838C32.3427 28.7724 32.2115 28.4799 32.0071 28.2416C31.8027 28.0033 31.5337 27.8295 31.2328 27.7411C30.9318 27.6527 30.6117 27.6536 30.3113 27.7437V27.744Z" fill="#292A2E"/>
<path d="M30.7779 33.9039C32.4383 33.9039 33.7843 33.0033 33.7843 31.8923C33.7843 30.7813 32.4383 29.8806 30.7779 29.8806C29.1175 29.8806 27.7715 30.7813 27.7715 31.8923C27.7715 33.0033 29.1175 33.9039 30.7779 33.9039Z" fill="white"/>
<path d="M32.1075 34.0516C31.6765 34.1795 31.2293 34.2438 30.7798 34.2427C28.9044 34.2427 27.4343 33.213 27.4326 31.895C27.4309 30.577 28.9 29.5436 30.7751 29.5419C31.5926 29.5262 32.3969 29.7499 33.0894 30.1855C33.4003 30.3479 33.6608 30.5925 33.8428 30.8928C34.0247 31.193 34.121 31.5375 34.1213 31.8888C34.1216 32.24 34.0258 32.5846 33.8443 32.8852C33.6629 33.1858 33.4027 33.4308 33.0921 33.5937C32.7884 33.7944 32.4566 33.9487 32.1075 34.0516ZM29.6533 30.3833C28.7499 30.6543 28.1092 31.2389 28.1098 31.896C28.1098 32.8031 29.3327 33.5679 30.7791 33.5669C31.4631 33.5813 32.1364 33.3957 32.7168 33.0328C32.9345 32.9323 33.1189 32.7714 33.2481 32.5691C33.3773 32.3668 33.4458 32.1316 33.4456 31.8915C33.4454 31.6513 33.3764 31.4163 33.2469 31.2142C33.1173 31.0121 32.9327 30.8516 32.7148 30.7515C32.1338 30.3897 31.4603 30.2054 30.7764 30.221C30.3962 30.2203 30.0178 30.2749 29.6533 30.3833Z" fill="#292A2E"/>
<path d="M31.5153 33.8424L31.4443 29.9305L30.4732 29.8909L30.4053 33.8881L31.5153 33.8424Z" fill="#292A2E"/>
<path d="M26.7894 32.7432C26.9608 32.7432 27.0998 32.604 27.0998 32.4323C27.0998 32.2606 26.9608 32.1213 26.7894 32.1213C26.618 32.1213 26.479 32.2606 26.479 32.4323C26.479 32.604 26.618 32.7432 26.7894 32.7432Z" fill="#292A2E"/>
<path d="M27.0316 31.0794C27.203 31.0794 27.3419 30.9402 27.3419 30.7685C27.3419 30.5967 27.203 30.4575 27.0316 30.4575C26.8602 30.4575 26.7212 30.5967 26.7212 30.7685C26.7212 30.9402 26.8602 31.0794 27.0316 31.0794Z" fill="#292A2E"/>
<path d="M130.049 44.9707C129.976 44.9707 129.906 44.9474 129.848 44.9043C129.79 44.8612 129.747 44.8005 129.726 44.7312C128.604 40.5357 128.305 36.1622 128.845 31.8527C129.718 25.5525 133.186 17.2839 144.745 13.6633C146.372 13.1394 148.04 12.7563 149.732 12.5181C150.276 9.1116 152.348 5.4131 156.98 2.86253C167.99 -3.19788 175.426 2.23962 175.5 2.29517C175.572 2.34907 175.619 2.42931 175.632 2.51824C175.645 2.60717 175.621 2.69751 175.568 2.76938C175.514 2.84125 175.434 2.88876 175.345 2.90146C175.256 2.91417 175.166 2.89102 175.094 2.83712C175.024 2.78428 167.917 -2.38494 157.307 3.45664C152.977 5.84023 150.995 9.26131 150.431 12.4372C155.529 11.9342 157.971 13.6379 159.066 14.9247C159.745 15.6984 160.181 16.655 160.32 17.6752C160.459 18.6954 160.296 19.7341 159.85 20.662C159.498 21.4116 158.927 22.0365 158.212 22.4543C157.498 22.8721 156.674 23.0631 155.849 23.0022C153.002 22.8349 150.646 20.4354 149.847 16.889C149.583 15.6885 149.513 14.4535 149.639 13.2308C148.048 13.4598 146.479 13.8213 144.948 14.3116C135.939 17.1335 130.747 23.0676 129.514 31.9479C128.985 36.1596 129.277 40.4341 130.372 44.5347C130.388 44.5854 130.391 44.639 130.382 44.6912C130.373 44.7434 130.352 44.7928 130.321 44.8354C130.289 44.8779 130.248 44.9126 130.201 44.9364C130.154 44.9603 130.102 44.9727 130.049 44.9727V44.9707ZM150.329 13.1461C150.188 14.3455 150.248 15.56 150.507 16.7396C151.237 19.9839 153.35 22.1764 155.889 22.3258C156.58 22.3754 157.271 22.2144 157.87 21.8638C158.469 21.5132 158.949 20.9895 159.245 20.3612C159.631 19.5522 159.772 18.6473 159.649 17.759C159.526 16.8708 159.144 16.0384 158.553 15.3654C156.972 13.5068 154.087 12.7562 150.329 13.1461Z" fill="#292A2E"/>
<path d="M183.377 5.71891C182.922 5.71802 182.476 5.58813 182.091 5.34424C181.706 5.10035 181.398 4.75239 181.202 4.34054C181.006 3.92869 180.931 3.46973 180.984 3.01663C181.037 2.56353 181.217 2.13477 181.503 1.77983C181.79 1.42489 182.17 1.15824 182.601 1.01067C183.032 0.863093 183.496 0.840603 183.939 0.945796C184.382 1.05099 184.786 1.27957 185.105 1.60517C185.424 1.93076 185.645 2.3401 185.742 2.78592C185.817 3.13929 185.813 3.50516 185.73 3.85675C185.646 4.20834 185.485 4.53675 185.258 4.81793C185.032 5.09912 184.745 5.32596 184.42 5.48185C184.094 5.63774 183.738 5.71874 183.377 5.71891ZM183.382 1.55805C183.023 1.55798 182.672 1.66965 182.378 1.87768C182.085 2.08572 181.863 2.37987 181.743 2.7196C181.623 3.05932 181.612 3.42789 181.71 3.77451C181.808 4.12113 182.011 4.42872 182.291 4.6549C182.571 4.88107 182.914 5.0147 183.273 5.03734C183.632 5.05999 183.989 4.97055 184.295 4.78135C184.601 4.59216 184.841 4.31251 184.981 3.98097C185.122 3.64943 185.157 3.28231 185.081 2.93021C184.999 2.54041 184.785 2.19089 184.476 1.94083C184.166 1.69078 183.78 1.55555 183.382 1.55805Z" fill="#292A2E"/>
<path d="M182.359 11.2472C181.739 11.2471 181.143 11.009 180.694 10.5819C180.244 10.1548 179.975 9.57121 179.941 8.9513C179.908 8.33139 180.114 7.72231 180.515 7.24946C180.917 6.7766 181.484 6.47594 182.1 6.40938C182.716 6.34281 183.334 6.51541 183.827 6.89164C184.32 7.26786 184.65 7.81908 184.75 8.43183C184.849 9.04458 184.71 9.67222 184.362 10.1856C184.013 10.6989 183.482 11.0589 182.876 11.1913C182.706 11.2285 182.533 11.2472 182.359 11.2472ZM182.368 7.08605C182.243 7.08612 182.118 7.09964 181.996 7.12635C181.564 7.22138 181.185 7.47863 180.937 7.84516C180.688 8.2117 180.59 8.65964 180.661 9.09683C180.732 9.53403 180.968 9.92721 181.32 10.1955C181.672 10.4638 182.113 10.5867 182.552 10.5391C182.992 10.4914 183.397 10.2768 183.683 9.93935C183.97 9.60189 184.116 9.16727 184.092 8.72491C184.069 8.28256 183.877 7.86611 183.556 7.56126C183.235 7.25641 182.81 7.08634 182.368 7.08605Z" fill="#292A2E"/>
<path d="M185.99 6.70866C186.203 5.55171 184.974 4.35469 183.245 4.03505C181.516 3.71541 179.942 4.39419 179.729 5.55114C179.516 6.7081 180.744 7.90512 182.473 8.22475C184.203 8.54439 185.777 7.86562 185.99 6.70866Z" fill="white"/>
<path d="M183.327 8.64273C183.02 8.64224 182.715 8.61389 182.414 8.55805C181.563 8.41672 180.773 8.0299 180.139 7.44501C179.861 7.20778 179.648 6.90427 179.518 6.56254C179.389 6.22082 179.347 5.85191 179.398 5.48991C179.48 5.13372 179.65 4.80393 179.893 4.53101C180.135 4.2581 180.443 4.05085 180.786 3.92841C181.591 3.62396 182.463 3.54565 183.308 3.70195C184.154 3.85825 184.941 4.24321 185.584 4.81518C185.861 5.05241 186.075 5.35592 186.204 5.69765C186.334 6.03937 186.375 6.40828 186.325 6.77028C186.243 7.12647 186.073 7.45626 185.83 7.72918C185.587 8.00209 185.28 8.20934 184.936 8.33178C184.426 8.54324 183.878 8.64902 183.327 8.64273ZM182.393 4.29422C181.934 4.28837 181.478 4.37559 181.054 4.55064C180.813 4.63124 180.597 4.77057 180.424 4.95603C180.251 5.1415 180.127 5.36725 180.063 5.61287C180.035 5.86521 180.07 6.12054 180.166 6.35567C180.261 6.5908 180.414 6.79829 180.61 6.95928C181.157 7.43749 181.822 7.75947 182.536 7.89148C183.25 8.02348 183.986 7.96065 184.667 7.70955C184.907 7.62899 185.124 7.48966 185.297 7.30418C185.47 7.11871 185.594 6.89294 185.658 6.64732C185.686 6.39499 185.65 6.13972 185.554 5.90463C185.459 5.66953 185.306 5.46202 185.11 5.3009C184.572 4.809 183.902 4.48495 183.183 4.3684C182.923 4.31976 182.658 4.29493 182.393 4.29422Z" fill="#292A2E"/>
<path d="M182.469 3.95691L181.789 8.04392L182.792 8.2729L183.633 4.1239L182.469 3.95691Z" fill="#292A2E"/>
<path d="M186.545 8.35379C186.726 8.35379 186.874 8.20638 186.874 8.02455C186.874 7.84272 186.726 7.69531 186.545 7.69531C186.363 7.69531 186.216 7.84272 186.216 8.02455C186.216 8.20638 186.363 8.35379 186.545 8.35379Z" fill="#292A2E"/>
<path d="M187.118 6.66836C187.299 6.66836 187.446 6.52096 187.446 6.33912C187.446 6.15729 187.299 6.00989 187.118 6.00989C186.936 6.00989 186.789 6.15729 186.789 6.33912C186.789 6.52096 186.936 6.66836 187.118 6.66836Z" fill="#292A2E"/>
<path d="M187.801 67.846V194.358C187.801 195.802 187.228 197.186 186.209 198.207C185.191 199.228 183.809 199.801 182.368 199.801H22.7264C21.2855 199.801 19.9036 199.228 18.8847 198.207C17.8659 197.186 17.2935 195.802 17.2935 194.358V92.5456C17.2935 91.102 17.866 89.7177 18.8848 88.6969C19.9037 87.6762 21.2855 87.1027 22.7264 87.1026H118.482C119.923 87.1026 121.305 86.5292 122.324 85.5084C123.343 84.4877 123.915 83.1033 123.915 81.6597V67.846C123.915 66.4024 124.488 65.018 125.507 63.9973C126.525 62.9765 127.907 62.4031 129.348 62.4031H182.368C183.809 62.4031 185.191 62.9765 186.209 63.9973C187.228 65.018 187.801 66.4024 187.801 67.846Z" fill="#367CFF"/>
<path d="M182.368 200.14H22.7269C21.1969 200.138 19.73 199.528 18.6481 198.445C17.5661 197.361 16.9574 195.891 16.9556 194.358V92.5455C16.9574 91.0127 17.5661 89.5432 18.6481 88.4594C19.73 87.3756 21.1969 86.7659 22.7269 86.7642H118.483C119.834 86.7626 121.129 86.2243 122.084 85.2673C123.039 84.3104 123.576 83.013 123.578 81.6597V67.846C123.579 66.3132 124.188 64.8436 125.27 63.7597C126.352 62.6758 127.818 62.0661 129.348 62.0643H182.368C183.898 62.066 185.365 62.6757 186.447 63.7596C187.529 64.8435 188.137 66.3131 188.139 67.846V194.358C188.137 195.891 187.529 197.361 186.447 198.445C185.365 199.528 183.898 200.138 182.368 200.14ZM22.7269 87.4417C21.3762 87.4431 20.0811 87.9813 19.1259 88.9381C18.1707 89.8949 17.6334 91.1923 17.6318 92.5455V194.358C17.6333 195.712 18.1706 197.009 19.1258 197.966C20.081 198.923 21.3761 199.461 22.7269 199.463H182.368C183.719 199.461 185.014 198.923 185.969 197.966C186.924 197.009 187.461 195.712 187.463 194.358V67.846C187.461 66.4927 186.924 65.1953 185.969 64.2384C185.014 63.2815 183.719 62.7433 182.368 62.7418H129.348C127.998 62.7434 126.703 63.2817 125.748 64.2386C124.793 65.1954 124.255 66.4928 124.254 67.846V81.6587C124.252 83.1916 123.644 84.6612 122.562 85.7452C121.48 86.8291 120.013 87.4389 118.483 87.4407L22.7269 87.4417Z" fill="#262626"/>
<path d="M197.944 67.846V194.358C197.944 195.802 197.371 197.186 196.353 198.207C195.334 199.228 193.952 199.801 192.511 199.801H32.8695C31.4286 199.801 30.0467 199.228 29.0278 198.207C28.0089 197.186 27.4365 195.802 27.4365 194.358V92.5456C27.4366 91.102 28.009 89.7177 29.0279 88.6969C30.0467 87.6762 31.4286 87.1027 32.8695 87.1026H128.625C130.066 87.1026 131.448 86.5292 132.467 85.5084C133.486 84.4877 134.058 83.1033 134.058 81.6597V67.846C134.058 66.4024 134.631 65.018 135.65 63.9973C136.668 62.9765 138.05 62.4031 139.491 62.4031H192.511C193.952 62.4031 195.334 62.9765 196.353 63.9973C197.371 65.018 197.944 66.4024 197.944 67.846Z" fill="white"/>
<path d="M192.511 200.14H32.87C31.34 200.138 29.8731 199.528 28.7911 198.445C27.7092 197.361 27.1005 195.891 27.0986 194.358V92.5455C27.1005 91.0127 27.7092 89.5432 28.7911 88.4594C29.8731 87.3756 31.34 86.7659 32.87 86.7642H128.626C129.977 86.7626 131.272 86.2243 132.227 85.2673C133.182 84.3104 133.719 83.013 133.721 81.6597V67.846C133.722 66.3132 134.331 64.8436 135.413 63.7597C136.495 62.6758 137.961 62.0661 139.491 62.0643H192.511C194.041 62.066 195.508 62.6757 196.59 63.7596C197.672 64.8435 198.28 66.3131 198.282 67.846V194.358C198.28 195.891 197.672 197.361 196.59 198.445C195.508 199.528 194.041 200.138 192.511 200.14ZM32.87 87.4417C31.5192 87.4431 30.2242 87.9813 29.269 88.9381C28.3138 89.8949 27.7764 91.1923 27.7748 92.5455V194.358C27.7764 195.712 28.3137 197.009 29.2689 197.966C30.2241 198.923 31.5192 199.461 32.87 199.463H192.511C193.862 199.461 195.157 198.923 196.112 197.966C197.067 197.009 197.604 195.712 197.606 194.358V67.846C197.604 66.4927 197.067 65.1953 196.112 64.2384C195.157 63.2815 193.862 62.7433 192.511 62.7418H139.491C138.141 62.7434 136.846 63.2817 135.891 64.2386C134.936 65.1954 134.398 66.4928 134.397 67.846V81.6587C134.395 83.1916 133.787 84.6612 132.705 85.7452C131.623 86.8291 130.156 87.4389 128.626 87.4407L32.87 87.4417Z" fill="#262626"/>
<path d="M99.8092 131.669C101.884 131.669 103.566 129.984 103.566 127.905C103.566 125.827 101.884 124.141 99.8092 124.141C97.7343 124.141 96.0522 125.827 96.0522 127.905C96.0522 129.984 97.7343 131.669 99.8092 131.669Z" fill="#292A2E"/>
<path d="M125.571 131.669C127.646 131.669 129.328 129.984 129.328 127.905C129.328 125.827 127.646 124.141 125.571 124.141C123.497 124.141 121.814 125.827 121.814 127.905C121.814 129.984 123.497 131.669 125.571 131.669Z" fill="#292A2E"/>
<path d="M117.728 137.725H107.653V138.402H117.728V137.725Z" fill="#262626"/>
<g opacity="0.1">
<path opacity="0.1" d="M95.9336 138.672C97.7847 138.672 99.2852 137.881 99.2852 136.905C99.2852 135.929 97.7847 135.138 95.9336 135.138C94.0826 135.138 92.582 135.929 92.582 136.905C92.582 137.881 94.0826 138.672 95.9336 138.672Z" fill="#367CFF"/>
<path opacity="0.1" d="M129.448 138.672C131.299 138.672 132.799 137.881 132.799 136.905C132.799 135.929 131.299 135.138 129.448 135.138C127.597 135.138 126.096 135.929 126.096 136.905C126.096 137.881 127.597 138.672 129.448 138.672Z" fill="#367CFF"/>
</g>
</g>
<defs>
<clipPath id="clip0_596_658">
<rect width="222" height="244" fill="white"/>
</clipPath>
</defs>
</svg>
