<svg width="374" height="362" viewBox="0 0 374 362" fill="none" xmlns="http://www.w3.org/2000/svg">
<path d="M268.121 362C326.597 362 374 357.628 374 352.235C374 346.843 326.597 342.471 268.121 342.471C209.645 342.471 162.241 346.843 162.241 352.235C162.241 357.628 209.645 362 268.121 362Z" fill="white"/>
<path opacity="0.1" d="M268.121 362C326.597 362 374 357.628 374 352.235C374 346.843 326.597 342.471 268.121 342.471C209.645 342.471 162.241 346.843 162.241 352.235C162.241 357.628 209.645 362 268.121 362Z" fill="#292A2E"/>
<path d="M92.356 207.03H58.6064V216.844H92.356V207.03Z" fill="#F4F4F4"/>
<path opacity="0.05" d="M67.5608 207.03H63.1387V216.844H67.5608V207.03Z" fill="#292A2E"/>
<path d="M88.043 209.163H69.6553V214.979H88.043V209.163Z" fill="white"/>
<path d="M119.276 208.31L87.917 194.621L83.9865 203.615L115.346 217.304L119.276 208.31Z" fill="#F4F4F4"/>
<path opacity="0.05" d="M119.276 208.31L87.917 194.621L83.9865 203.615L115.346 217.304L119.276 208.31Z" fill="#292A2E"/>
<path d="M115.065 206.472L110.956 204.678L107.026 213.672L111.135 215.466L115.065 206.472Z" fill="white"/>
<path d="M108.154 205.783L91.0693 198.325L88.7402 203.655L105.825 211.113L108.154 205.783Z" fill="white"/>
<path opacity="0.05" d="M119.335 331.359H110.854V337.02H119.335V331.359Z" fill="#292A2E"/>
<path opacity="0.05" d="M32.6219 331.359H24.1406V337.02H32.6219V331.359Z" fill="#292A2E"/>
<path d="M127.109 217.304H16.3662V331.168H127.109V217.304Z" fill="#F4F4F4"/>
<path opacity="0.03" d="M127.109 217.304H16.3662V331.168H127.109V217.304Z" fill="#292A2E"/>
<path d="M147.631 217.304H36.8887V331.168H147.631V217.304Z" fill="#F4F4F4"/>
<path opacity="0.05" d="M139.856 331.359H131.375V337.02H139.856V331.359Z" fill="#292A2E"/>
<path opacity="0.05" d="M53.1444 331.359H44.6631V337.02H53.1444V331.359Z" fill="#292A2E"/>
<path opacity="0.7" d="M143.474 222.637H41.0459V244.513H143.474V222.637Z" fill="white"/>
<path opacity="0.7" d="M143.474 249.867H41.0459V271.742H143.474V249.867Z" fill="white"/>
<path opacity="0.7" d="M143.474 277.097H41.0459V298.972H143.474V277.097Z" fill="white"/>
<path opacity="0.05" d="M92.2598 236.636C93.9512 236.636 95.3223 235.265 95.3223 233.575C95.3223 231.885 93.9512 230.514 92.2598 230.514C90.5684 230.514 89.1973 231.885 89.1973 233.575C89.1973 235.265 90.5684 236.636 92.2598 236.636Z" fill="#292A2E"/>
<path opacity="0.05" d="M92.2598 263.866C93.9512 263.866 95.3223 262.495 95.3223 260.805C95.3223 259.114 93.9512 257.744 92.2598 257.744C90.5684 257.744 89.1973 259.114 89.1973 260.805C89.1973 262.495 90.5684 263.866 92.2598 263.866Z" fill="#292A2E"/>
<path opacity="0.05" d="M92.2598 291.096C93.9512 291.096 95.3223 289.725 95.3223 288.035C95.3223 286.344 93.9512 284.974 92.2598 284.974C90.5684 284.974 89.1973 286.344 89.1973 288.035C89.1973 289.725 90.5684 291.096 92.2598 291.096Z" fill="#292A2E"/>
<path opacity="0.7" d="M143.474 304.94H41.0459V326.816H143.474V304.94Z" fill="white"/>
<path opacity="0.05" d="M92.2598 318.939C93.9512 318.939 95.3223 317.568 95.3223 315.878C95.3223 314.187 93.9512 312.817 92.2598 312.817C90.5684 312.817 89.1973 314.187 89.1973 315.878C89.1973 317.568 90.5684 318.939 92.2598 318.939Z" fill="#292A2E"/>
<path d="M55.6784 104.29L121.161 104.29L121.161 19.1033L55.6784 19.1033L55.6784 104.29Z" fill="#F4F4F4"/>
<path d="M55.678 19.1033H53.5537V104.29H55.678V19.1033Z" fill="#F4F4F4"/>
<path opacity="0.05" d="M55.678 19.1033H53.5537V104.29H55.678V19.1033Z" fill="#292A2E"/>
<path opacity="0.05" d="M67.607 88.7719H109.232V34.6208L67.607 34.6208V88.7719Z" fill="#292A2E"/>
<path opacity="0.03" d="M67.6071 88.7719H69.7764V34.6208H67.6071V88.7719Z" fill="#292A2E"/>
<path d="M2.12365 179.254H55.6777L55.6777 125.238H2.12365L2.12365 179.254Z" fill="#F4F4F4"/>
<path opacity="0.05" d="M11.8791 169.415H45.9219L45.9219 135.078H11.8791L11.8791 169.415Z" fill="#292A2E"/>
<path d="M2.12432 125.239H0V179.255H2.12432V125.239Z" fill="#F4F4F4"/>
<path opacity="0.05" d="M2.12432 125.239H0V179.255H2.12432V125.239Z" fill="#292A2E"/>
<path opacity="0.03" d="M11.8796 169.415H14.0488L14.0488 135.078H11.8796L11.8796 169.415Z" fill="#292A2E"/>
<path d="M328.689 18.9005H192.037V155.477H328.689V18.9005Z" fill="#F4F4F4"/>
<path d="M192.037 18.9005H190.471V155.477H192.037V18.9005Z" fill="#F4F4F4"/>
<path opacity="0.05" d="M192.037 18.9005H190.471V155.477H192.037V18.9005Z" fill="#292A2E"/>
<path opacity="0.05" d="M225.142 113.013V77.2797H254.428V98.04H299.793V134.798H319.074V155.477H299.793H296.079H198.61V113.013H225.142Z" fill="#292A2E"/>
<path opacity="0.34" d="M250.669 81.1594H229.342V85.0391H250.669V81.1594Z" fill="#FFFFFA"/>
<path opacity="0.34" d="M250.669 89.1993H229.342V93.079H250.669V89.1993Z" fill="#FFFFFA"/>
<path opacity="0.34" d="M250.669 97.2392H229.342V101.119H250.669V97.2392Z" fill="#FFFFFA"/>
<path opacity="0.34" d="M206.324 116.779H202.393V120.658H206.324V116.779Z" fill="#FFFFFA"/>
<path opacity="0.34" d="M206.324 124.819H202.393V128.698H206.324V124.819Z" fill="#FFFFFA"/>
<path opacity="0.34" d="M206.324 132.858H202.393V136.738H206.324V132.858Z" fill="#FFFFFA"/>
<path opacity="0.34" d="M213.596 116.779H209.665V120.658H213.596V116.779Z" fill="#FFFFFA"/>
<path opacity="0.34" d="M213.596 124.819H209.665V128.698H213.596V124.819Z" fill="#FFFFFA"/>
<path opacity="0.34" d="M213.596 132.858H209.665V136.738H213.596V132.858Z" fill="#FFFFFA"/>
<path opacity="0.34" d="M220.671 116.779H216.74V120.658H220.671V116.779Z" fill="#FFFFFA"/>
<path opacity="0.34" d="M220.671 124.819H216.74V128.698H220.671V124.819Z" fill="#FFFFFA"/>
<path opacity="0.34" d="M220.671 132.858H216.74V136.738H220.671V132.858Z" fill="#FFFFFA"/>
<path d="M192.037 86.4223H219.533V18.9H221.808V86.4223H296.079V18.9H298.353V86.4223H328.689V88.695H298.353V155.477H296.079V88.695H221.808V155.477H219.533V88.695H192.037V86.4223Z" fill="white"/>
<path d="M334.132 155.312H186.593V159.854H334.132V155.312Z" fill="#F4F4F4"/>
<path opacity="0.1" d="M334.132 155.312H186.593V159.854H334.132V155.312Z" fill="#292A2E"/>
<path opacity="0.1" d="M186.593 155.312H184.463V159.854H186.593V155.312Z" fill="#292A2E"/>
<path opacity="0.1" d="M186.593 155.312H184.463V159.854H186.593V155.312Z" fill="#292A2E"/>
<path d="M305.257 178.709C284.337 178.709 267.377 184.414 267.377 191.45V206.618H343.138V191.45C343.138 184.414 326.178 178.709 305.257 178.709Z" fill="#367CFF"/>
<path opacity="0.49" d="M305.257 178.709C284.337 178.709 267.377 184.414 267.377 191.45V206.618H343.138V191.45C343.138 184.414 326.178 178.709 305.257 178.709Z" fill="white"/>
<path opacity="0.49" d="M332.818 191.452V206.618H267.376V191.452C267.376 185.002 281.619 179.673 300.097 178.831C318.577 179.673 332.818 185.002 332.818 191.452Z" fill="white"/>
<path d="M343.137 354.001H344.409L343.137 205.273L341.877 206.544L342.776 310.434L297.897 311.197L296.992 206.533L295.732 206.544L296.637 311.218L269.546 311.678L268.636 206.533L267.376 205.284L268.647 354.001L269.897 353.991L269.557 312.938L296.648 312.478L296.992 354.001L298.252 353.991L297.908 312.457L342.787 311.694L343.137 354.001Z" fill="#292A2E"/>
<path d="M228.877 331.734C228.877 331.734 226.624 343.405 215.69 344.056C204.756 344.706 207.127 353.412 207.127 353.412H248.91V332.548L228.877 331.734Z" fill="#367CFF"/>
<path d="M252.715 296.63C252.715 296.63 255.848 308.097 246.325 313.504C236.801 318.912 242.774 325.677 242.774 325.677L280.265 307.242L271.05 288.521L252.715 296.63Z" fill="#367CFF"/>
<path d="M248.749 304.209L220.499 197.678C218.356 185.909 221.582 180.808 226.553 175.853C235.286 167.146 271.475 148.616 271.475 148.616L314.89 148.497C326.402 148.497 337.718 159.842 337.718 171.348C337.718 182.853 326.015 192.61 314.504 192.61L261.042 197.943L275.534 295.486L248.749 304.209Z" fill="#262626"/>
<path d="M275.534 295.485L269.828 257.084L240.925 274.705L248.749 304.209L275.534 295.485Z" fill="#0C0C0C"/>
<path d="M282.084 170.173C282.084 170.173 263.834 174.238 245.759 192.304C234.8 203.256 235.699 223.077 237.343 261.199L255.295 234.698L274.985 199.205L282.084 170.173Z" fill="#0C0C0C"/>
<path d="M345.275 148.486L315.791 148.347L315.78 148.735H306.853C306.853 148.735 284.488 169.301 266.485 182.261C253.388 191.688 245.399 200.675 244.708 210.47C243.023 234.347 224.016 336.181 224.016 336.181L252.621 340.51L277.724 218.811C277.724 218.811 316.975 200.724 326.054 194.432C334.603 188.505 340.642 186.214 343.472 179.747C348.358 168.576 345.275 148.486 345.275 148.486Z" fill="#262626"/>
<path d="M312.198 155.908L264.367 156.541L291.198 172.557L313.524 161.035C314.061 160.746 314.487 160.285 314.732 159.726C314.976 159.167 315.026 158.542 314.874 157.951C314.721 157.361 314.374 156.838 313.889 156.468C313.404 156.097 312.808 155.9 312.198 155.908Z" fill="#292A2E"/>
<path opacity="0.2" d="M312.198 155.908L264.367 156.541L291.198 172.557L313.524 161.035C314.061 160.746 314.487 160.285 314.732 159.726C314.976 159.167 315.026 158.542 314.874 157.951C314.721 157.361 314.374 156.838 313.889 156.468C313.404 156.097 312.808 155.9 312.198 155.908Z" fill="white"/>
<path d="M264.641 70.1464L251.112 113.958L224.014 149.417L239.843 167.578L272.081 131.616C273.567 130.443 274.728 128.911 275.457 127.165L275.959 125.95L294.581 80.9196L264.641 70.1464Z" fill="#367CFF"/>
<path d="M285.482 23.6418C285.482 23.6418 280.031 19.5265 278.68 10.0614C277.634 2.73244 284.399 7.48054 284.399 7.48054C284.399 7.48054 283.697 2.19578 287.55 2.72026C291.403 3.24475 293.558 8.79616 293.558 8.79616" fill="#0C0C0C"/>
<path d="M307.461 3.33887C307.461 3.33887 326.576 5.38684 319.666 31.2744L317.975 31.3878L314.541 31.6179" fill="#0C0C0C"/>
<path d="M288.684 58.31C288.768 58.2991 289.7 73.7633 307.675 72.4166C320.12 71.4847 324.557 58.2882 324.842 58.2882C323.501 58.003 321.842 57.5705 321.184 57.4223C319.747 57.0892 318.446 56.3269 317.454 55.2368C316.462 54.1467 315.825 52.7805 315.629 51.3199C315.265 49.1279 315.881 37.9126 315.693 35.6945L296.591 39.9559C296.859 44.6406 298.727 55.5003 292.18 57.4223C291.089 57.7398 289.915 58.0337 288.684 58.31Z" fill="#E98862"/>
<path opacity="0.52" d="M296.324 52.9841C296.623 52.0202 296.816 51.0265 296.899 50.0207C297.109 47.7255 297.066 45.4144 296.773 43.1284C300.656 42.6055 304.314 41.0044 307.332 38.5071C307.687 39.8165 309.638 45.5375 309.097 46.7797C308.076 49.1313 303.279 52.9841 296.324 52.9841Z" fill="#0C0C0C"/>
<path d="M300.267 49.9233C307.803 49.2476 316.823 44.4886 316.954 34.2638L317.071 25.0381C317.201 14.8137 311.933 6.45679 302.301 6.33417C292.669 6.21198 285.364 14.4089 285.233 24.6337L285.182 28.7179C285.188 30.1206 285.29 31.5212 285.488 32.91C285.982 36.5843 286.748 42.1706 289.243 45.9495C291.599 49.5172 295.452 50.3545 300.267 49.9233Z" fill="#E98862"/>
<path opacity="0.52" d="M296.77 40.5774C295.215 40.6478 293.665 40.3519 292.245 39.7136C292.187 39.6874 292.141 39.6396 292.118 39.5803C292.095 39.5211 292.096 39.4552 292.121 39.3967C292.146 39.3382 292.193 39.2918 292.252 39.2675C292.31 39.2431 292.376 39.2427 292.435 39.2664C295.495 40.5703 298.272 40.3796 300.468 38.7146C300.512 38.6796 300.558 38.6469 300.606 38.6168C300.661 38.5908 300.724 38.5865 300.782 38.6048C300.84 38.6231 300.89 38.6626 300.92 38.7154C300.951 38.7683 300.96 38.8306 300.947 38.8902C300.933 38.9497 300.898 39.002 300.848 39.0367C300.83 39.0476 300.802 39.0699 300.764 39.1001C299.609 39.9789 298.219 40.4933 296.77 40.5774Z" fill="#0C0C0C"/>
<path opacity="0.52" d="M296.841 42.8807C296.56 42.898 296.278 42.8913 295.999 42.8606C295.967 42.8572 295.936 42.8476 295.908 42.8324C295.88 42.8171 295.855 42.7965 295.835 42.7717C295.815 42.7469 295.8 42.7184 295.791 42.6878C295.782 42.6573 295.779 42.6252 295.783 42.5935C295.786 42.5618 295.796 42.531 295.811 42.503C295.826 42.475 295.847 42.4503 295.871 42.4303C295.896 42.4102 295.925 42.3952 295.955 42.3862C295.986 42.3772 296.018 42.3743 296.05 42.3776C297.733 42.5561 298.537 41.7856 298.571 41.7524C298.616 41.7068 298.678 41.6811 298.743 41.681C298.807 41.681 298.869 41.7065 298.914 41.752C298.96 41.7975 298.986 41.8592 298.986 41.9236C298.986 41.988 298.96 42.0499 298.915 42.0955C298.335 42.5888 297.603 42.8662 296.841 42.8807Z" fill="#0C0C0C"/>
<path d="M288.414 30.6839C289.069 30.6839 289.601 30.153 289.601 29.4981C289.601 28.8431 289.069 28.3122 288.414 28.3122C287.759 28.3122 287.228 28.8431 287.228 29.4981C287.228 30.153 287.759 30.6839 288.414 30.6839Z" fill="#0C0C0C"/>
<path d="M300.006 29.9571C300.661 29.9571 301.192 29.4261 301.192 28.7712C301.192 28.1163 300.661 27.5853 300.006 27.5853C299.351 27.5853 298.819 28.1163 298.819 28.7712C298.819 29.4261 299.351 29.9571 300.006 29.9571Z" fill="#0C0C0C"/>
<path d="M316.316 37.3733C319.243 37.4107 321.655 34.3108 321.694 31.3852C321.732 28.4596 319.378 26.816 316.451 26.7791L314.918 28.7199L313.8 37.3414L316.316 37.3733Z" fill="#E98862"/>
<path d="M313.403 32.6702C313.403 32.6702 312.415 18.2025 308.025 17.3089C305.102 16.7139 298.013 20.8586 291.446 19.6068C288.573 19.0609 285.846 19.7697 285.569 21.126C285.459 21.6631 283.669 13.9453 288.168 8.08988C291.75 3.42871 303.471 2.11015 308.803 3.63868C323.57 7.87236 317.054 27.4136 317.054 27.4136L316.395 32.4015L313.403 32.6702Z" fill="#0C0C0C"/>
<g opacity="0.52">
<path opacity="0.52" d="M295.001 37.1634C294.995 37.1639 294.988 37.1639 294.982 37.1634C294.039 37.1542 292.458 37.0328 292.464 36.3278C292.471 35.7433 294.134 29.4515 294.324 28.736C294.341 28.6744 294.381 28.6218 294.436 28.5898C294.491 28.5578 294.557 28.5489 294.618 28.5653C294.68 28.5816 294.732 28.6217 294.764 28.6768C294.797 28.7319 294.805 28.7974 294.789 28.859C294.05 31.6456 292.949 35.9356 292.945 36.3337C293.036 36.5016 294.01 36.6746 294.986 36.6847C295.048 36.686 295.107 36.711 295.151 36.7543C295.194 36.7977 295.22 36.8562 295.222 36.9177C295.223 36.9793 295.202 37.0392 295.16 37.0851C295.119 37.1309 295.062 37.1593 295.001 37.1643V37.1634Z" fill="#0C0C0C"/>
</g>
<path d="M291.782 23.0682C290.791 22.7955 289.744 22.7955 288.752 23.0682C288.266 23.1991 287.801 23.4023 287.375 23.6712C286.953 23.9345 286.566 24.2499 286.224 24.6102C286.16 24.6743 286.124 24.7604 286.123 24.8504C286.122 24.9404 286.155 25.0274 286.216 25.0934C286.278 25.1594 286.362 25.1992 286.452 25.2047C286.542 25.2101 286.63 25.1806 286.699 25.1225L286.721 25.104C287.038 24.8104 287.391 24.5579 287.771 24.3527C288.144 24.1485 288.546 24.0018 288.963 23.9177C289.784 23.7457 290.636 23.7933 291.432 24.0558L291.465 24.0676C291.596 24.1096 291.737 24.0991 291.86 24.0384C291.983 23.9777 292.077 23.8715 292.123 23.7424C292.168 23.6133 292.162 23.4715 292.105 23.3472C292.047 23.2229 291.944 23.1258 291.816 23.0766L291.782 23.0682Z" fill="#0C0C0C"/>
<path d="M298.802 23.6632C299.556 23.2969 300.394 23.1363 301.231 23.1975C301.655 23.2251 302.073 23.3168 302.47 23.4697C302.874 23.6227 303.257 23.8259 303.61 24.0744L303.632 24.0895C303.708 24.1383 303.8 24.156 303.889 24.1388C303.977 24.1217 304.056 24.071 304.108 23.9974C304.16 23.9238 304.181 23.8329 304.168 23.7437C304.155 23.6546 304.108 23.574 304.036 23.5188C303.649 23.2074 303.223 22.9463 302.77 22.7415C302.312 22.5319 301.824 22.3923 301.324 22.3275C300.305 22.1887 299.268 22.3275 298.322 22.7293C298.258 22.7569 298.201 22.7967 298.153 22.8464C298.105 22.8962 298.067 22.9549 298.042 23.0192C298.016 23.0836 298.004 23.1523 298.005 23.2214C298.006 23.2906 298.021 23.3588 298.049 23.4222C298.104 23.5503 298.209 23.651 298.339 23.7022C298.403 23.7275 298.472 23.74 298.541 23.7387C298.61 23.7375 298.678 23.7227 298.742 23.6952L298.771 23.6813L298.802 23.6632Z" fill="#0C0C0C"/>
<path d="M298.321 8.15581C298.988 4.9685 297.771 2.01788 295.605 1.56544C293.438 1.113 291.141 3.33007 290.475 6.51738C289.809 9.7047 291.025 12.6553 293.192 13.1077C295.358 13.5602 297.655 11.3431 298.321 8.15581Z" fill="#0C0C0C"/>
<path d="M266.348 92.2996C266.915 98.9478 270.928 140.427 271.474 148.617H345.243C345.667 141.231 347.57 108.934 349.177 94.4882C350.712 80.7054 352.862 74.4334 351.095 70.1506C347.978 62.5962 338.058 59.2229 331.34 58.3138C327.237 57.7586 321.067 57.361 321.067 57.361C321.067 57.361 320.545 67.9233 308.088 68.5112C291.131 69.3091 292.263 57.361 292.179 57.361C289.432 57.361 274.479 59.3577 270.739 61.7933C265.459 65.2333 263.898 69.9218 263.836 74.2289C263.765 79.1895 265.707 84.7582 266.348 92.2996Z" fill="#367CFF"/>
<path d="M270.09 132.271C270.037 132.271 269.986 132.251 269.947 132.216C269.908 132.18 269.884 132.132 269.88 132.079L267.085 100.131C267.08 100.076 267.097 100.021 267.133 99.9779C267.169 99.9352 267.22 99.9085 267.276 99.9036C267.303 99.9008 267.331 99.9035 267.357 99.9117C267.384 99.9198 267.409 99.9332 267.43 99.951C267.451 99.9688 267.469 99.9907 267.481 100.015C267.494 100.04 267.501 100.067 267.503 100.095L270.298 132.043C270.303 132.098 270.286 132.153 270.25 132.196C270.214 132.238 270.163 132.265 270.107 132.27C270.102 132.27 270.096 132.271 270.09 132.271Z" fill="#0C0C0C"/>
<path d="M275.439 150.828L285.568 142.615L283.863 143.096C283.31 143.241 282.722 143.17 282.219 142.898C281.716 142.626 281.335 142.173 281.153 141.632C281.069 141.349 281.044 141.052 281.078 140.758C281.113 140.465 281.206 140.182 281.354 139.927C281.502 139.671 281.7 139.448 281.936 139.271C282.173 139.095 282.443 138.968 282.73 138.899L304.009 133.727L305.841 140.501C306.409 142.605 306.337 144.83 305.632 146.893C304.927 148.955 303.621 150.76 301.883 152.076L293.999 158.023C293.595 158.339 293.095 158.507 292.582 158.497C292.069 158.487 291.575 158.301 291.184 157.969C290.836 157.662 290.597 157.252 290.499 156.798C290.402 156.345 290.452 155.872 290.643 155.45C290.609 155.44 290.578 155.42 290.554 155.394C290.533 155.369 290.518 155.338 290.511 155.306C290.505 155.274 290.506 155.24 290.516 155.208L289.063 156.308C288.614 156.662 288.048 156.833 287.478 156.785C286.908 156.738 286.377 156.476 285.993 156.053C285.663 155.662 285.481 155.168 285.48 154.657C285.478 154.146 285.657 153.651 285.985 153.258C285.962 153.255 285.94 153.247 285.92 153.236L285.323 153.688C284.92 154.005 284.419 154.172 283.906 154.162C283.393 154.152 282.9 153.966 282.508 153.634C282.087 153.262 281.827 152.74 281.782 152.18C281.737 151.619 281.911 151.063 282.267 150.628C282.259 150.616 282.252 150.603 282.246 150.589L278.028 154.009C277.819 154.179 277.578 154.306 277.32 154.382C277.062 154.459 276.791 154.484 276.523 154.456C276.256 154.428 275.996 154.348 275.759 154.22C275.522 154.091 275.313 153.918 275.144 153.709C274.974 153.5 274.847 153.26 274.77 153.002C274.694 152.744 274.669 152.473 274.697 152.205C274.725 151.938 274.805 151.678 274.933 151.442C275.061 151.205 275.235 150.996 275.444 150.826L275.439 150.828Z" fill="#E98862"/>
<path opacity="0.2" d="M282.499 150.711C282.521 150.703 282.542 150.692 282.56 150.676L286.619 147.306C286.639 147.289 286.656 147.268 286.669 147.245C286.681 147.221 286.689 147.195 286.691 147.168C286.694 147.141 286.691 147.115 286.683 147.089C286.675 147.063 286.662 147.04 286.645 147.019C286.628 146.998 286.607 146.981 286.583 146.969C286.559 146.956 286.533 146.949 286.507 146.946C286.48 146.944 286.453 146.947 286.427 146.955C286.402 146.963 286.378 146.976 286.357 146.993L282.299 150.362C282.262 150.393 282.237 150.436 282.229 150.483C282.22 150.53 282.229 150.579 282.253 150.62C282.276 150.662 282.314 150.694 282.359 150.711C282.404 150.727 282.454 150.727 282.499 150.711Z" fill="#0A0A0A"/>
<path opacity="0.2" d="M286.075 153.256C286.097 153.249 286.118 153.237 286.135 153.222L289.346 150.599C289.388 150.564 289.414 150.515 289.42 150.461C289.425 150.407 289.409 150.353 289.375 150.311C289.341 150.27 289.291 150.243 289.237 150.237C289.183 150.232 289.129 150.248 289.087 150.282L285.877 152.906C285.84 152.937 285.814 152.979 285.805 153.027C285.796 153.074 285.804 153.123 285.828 153.165C285.852 153.207 285.89 153.239 285.935 153.256C285.98 153.273 286.03 153.273 286.075 153.256Z" fill="#0A0A0A"/>
<path opacity="0.2" d="M290.774 155.456C290.798 155.448 290.82 155.435 290.839 155.419L292.326 154.145C292.346 154.127 292.363 154.106 292.375 154.082C292.387 154.058 292.394 154.032 292.396 154.005C292.398 153.979 292.395 153.952 292.387 153.926C292.378 153.901 292.365 153.877 292.348 153.857C292.33 153.837 292.309 153.82 292.285 153.808C292.261 153.796 292.235 153.789 292.208 153.787C292.182 153.784 292.155 153.788 292.129 153.796C292.104 153.804 292.08 153.818 292.06 153.835L290.573 155.11C290.537 155.141 290.513 155.183 290.505 155.23C290.497 155.277 290.506 155.325 290.53 155.367C290.554 155.408 290.591 155.439 290.636 155.456C290.681 155.472 290.73 155.472 290.774 155.456Z" fill="#0A0A0A"/>
<path d="M364.962 130.711L364.885 130.366L351.42 70.8448L324.782 76.8632L335.291 123.323L293.192 133.662L298.373 157.404L354.475 146.709C354.601 146.685 354.788 146.647 354.916 146.618C356.621 146.233 358.233 145.516 359.66 144.508C361.088 143.5 362.303 142.221 363.236 140.744C364.168 139.267 364.801 137.62 365.097 135.899C365.394 134.177 365.348 132.414 364.962 130.711Z" fill="#367CFF"/>
<path d="M292.986 133.707C292.975 133.654 292.985 133.598 293.014 133.552C293.043 133.506 293.088 133.473 293.141 133.46L335.053 123.172L328.238 93.0903C328.231 93.0629 328.229 93.0342 328.232 93.006C328.236 92.9778 328.246 92.9507 328.26 92.9262C328.275 92.9018 328.294 92.8805 328.317 92.8638C328.34 92.8471 328.366 92.8352 328.394 92.8289C328.422 92.8226 328.451 92.822 328.479 92.8272C328.507 92.8324 328.533 92.8431 328.557 92.8589C328.581 92.8747 328.601 92.8951 328.617 92.9189C328.632 92.9427 328.643 92.9695 328.648 92.9975L335.508 123.28C335.521 123.334 335.511 123.391 335.482 123.438C335.454 123.485 335.407 123.519 335.353 123.532L293.439 133.821C293.439 133.821 293.72 135.045 293.799 135.458C293.805 135.512 293.79 135.566 293.756 135.609C293.722 135.651 293.673 135.678 293.62 135.685C293.566 135.691 293.512 135.675 293.469 135.642C293.427 135.608 293.399 135.559 293.393 135.505C293.296 135.052 292.986 133.707 292.986 133.707Z" fill="#0C0C0C"/>
<path d="M294.629 166.86L278.443 117.131C278.158 116.258 277.604 115.496 276.86 114.956C276.116 114.416 275.221 114.125 274.301 114.125H208.356C207.669 114.125 206.991 114.288 206.379 114.6C205.766 114.912 205.236 115.364 204.832 115.92C204.428 116.476 204.162 117.119 204.054 117.798C203.947 118.477 204.002 119.171 204.215 119.824L220.402 169.553C220.686 170.427 221.24 171.189 221.984 171.729C222.728 172.269 223.624 172.559 224.543 172.56H290.488C291.175 172.559 291.853 172.397 292.465 172.085C293.078 171.773 293.607 171.32 294.011 170.765C294.415 170.209 294.682 169.565 294.789 168.887C294.897 168.208 294.842 167.514 294.629 166.86Z" fill="#292A2E"/>
<path opacity="0.2" d="M294.629 166.86L278.443 117.131C278.158 116.258 277.604 115.496 276.86 114.956C276.116 114.416 275.221 114.125 274.301 114.125H208.356C207.669 114.125 206.991 114.288 206.379 114.6C205.766 114.912 205.236 115.364 204.832 115.92C204.428 116.476 204.162 117.119 204.054 117.798C203.947 118.477 204.002 119.171 204.215 119.824L220.402 169.553C220.686 170.427 221.24 171.189 221.984 171.729C222.728 172.269 223.624 172.559 224.543 172.56H290.488C291.175 172.559 291.853 172.397 292.465 172.085C293.078 171.773 293.607 171.32 294.011 170.765C294.415 170.209 294.682 169.565 294.789 168.887C294.897 168.208 294.842 167.514 294.629 166.86Z" fill="white"/>
<path d="M247.523 150.255C251.342 150.255 254.439 147.16 254.439 143.342C254.439 139.525 251.342 136.43 247.523 136.43C243.703 136.43 240.606 139.525 240.606 143.342C240.606 147.16 243.703 150.255 247.523 150.255Z" fill="white"/>
<path d="M182.413 5.25494H51.5289C45.4653 5.25494 40.5498 10.1678 40.5498 16.228V175.031C40.5498 181.091 45.4653 186.004 51.5289 186.004H182.413C188.477 186.004 193.393 181.091 193.393 175.031V16.228C193.393 10.1678 188.477 5.25494 182.413 5.25494Z" fill="#292A2E"/>
<path d="M187.251 0.419922H56.3668C50.3032 0.419922 45.3877 5.33273 45.3877 11.393V170.196C45.3877 176.256 50.3032 181.169 56.3668 181.169H187.251C193.315 181.169 198.23 176.256 198.23 170.196V11.393C198.23 5.33273 193.315 0.419922 187.251 0.419922Z" fill="white"/>
<path d="M187.251 181.589H56.3671C53.3447 181.586 50.4472 180.384 48.3101 178.248C46.173 176.112 44.971 173.216 44.9678 170.196V11.393C44.9711 8.37241 46.1732 5.47649 48.3102 3.34061C50.4473 1.20474 53.3448 0.00333447 56.3671 0L187.251 0C190.274 0.0034456 193.171 1.2049 195.308 3.34076C197.445 5.47663 198.647 8.37248 198.65 11.393V170.196C198.647 173.216 197.445 176.112 195.308 178.248C193.171 180.384 190.274 181.586 187.251 181.589ZM56.3671 0.839851C53.5676 0.842963 50.8837 1.95581 48.9042 3.93423C46.9247 5.91266 45.8112 8.59508 45.8081 11.393V170.196C45.8112 172.994 46.9247 175.676 48.9042 177.654C50.8837 179.633 53.5676 180.746 56.3671 180.749H187.251C190.051 180.746 192.735 179.633 194.714 177.654C196.694 175.676 197.807 172.994 197.81 170.196V11.393C197.807 8.59512 196.694 5.91269 194.714 3.93426C192.735 1.95582 190.051 0.842963 187.251 0.839851H56.3671Z" fill="#292A2E"/>
<path d="M43.6247 203.892C58.6792 203.892 70.8833 191.695 70.8833 176.649C70.8833 161.603 58.6792 149.405 43.6247 149.405C28.5703 149.405 16.3662 161.603 16.3662 176.649C16.3662 191.695 28.5703 203.892 43.6247 203.892Z" fill="#292A2E"/>
<path d="M37.9656 173.093C37.6068 173.093 37.2626 172.951 37.0088 172.697C36.755 172.444 36.6124 172.1 36.6123 171.741V165.194C36.6123 161.574 39.758 158.628 43.6243 158.628C47.4906 158.628 50.6363 161.574 50.6363 165.194V171.292C50.6395 171.471 50.6068 171.65 50.5402 171.817C50.4737 171.983 50.3745 172.135 50.2485 172.264C50.1226 172.392 49.9723 172.493 49.8066 172.563C49.6408 172.632 49.4629 172.668 49.2832 172.668C49.1035 172.668 48.9255 172.632 48.7598 172.563C48.5941 172.493 48.4438 172.392 48.3179 172.264C48.1919 172.135 48.0927 171.983 48.0261 171.817C47.9596 171.65 47.9269 171.471 47.9301 171.292V165.194C47.9301 163.065 45.9974 161.333 43.6243 161.333C41.2513 161.333 39.3185 163.065 39.3185 165.194V171.742C39.3183 172.1 39.1757 172.444 38.922 172.697C38.6683 172.951 38.3243 173.093 37.9656 173.093Z" fill="white"/>
<path d="M52.2571 170.609H34.992C33.9852 170.609 33.1689 171.425 33.1689 172.431V188.685C33.1689 189.691 33.9852 190.507 34.992 190.507H52.2571C53.264 190.507 54.0802 189.691 54.0802 188.685V172.431C54.0802 171.425 53.264 170.609 52.2571 170.609Z" fill="white"/>
<path d="M41.9054 178.949C41.9053 179.271 41.9958 179.587 42.1667 179.861C42.3375 180.134 42.5819 180.354 42.8718 180.495V183.135C42.8718 183.334 42.9508 183.525 43.0916 183.665C43.2323 183.806 43.4232 183.885 43.6222 183.885C43.8212 183.885 44.0121 183.806 44.1528 183.665C44.2935 183.525 44.3726 183.334 44.3726 183.135V180.495C44.6487 180.361 44.8839 180.156 45.0538 179.9C45.2237 179.645 45.322 179.349 45.3385 179.042C45.3551 178.736 45.2893 178.431 45.1479 178.159C45.0066 177.886 44.7949 177.657 44.5348 177.494C44.2747 177.331 43.9757 177.241 43.6688 177.232C43.362 177.224 43.0586 177.298 42.79 177.447C42.5215 177.595 42.2976 177.813 42.1416 178.077C41.9857 178.341 41.9034 178.642 41.9033 178.949H41.9054Z" fill="#292A2E"/>
<path d="M175.822 90.6086H67.7962C65.2174 90.6086 63.127 92.6979 63.127 95.2752V110.411C63.127 112.988 65.2174 115.078 67.7962 115.078H175.822C178.4 115.078 180.491 112.988 180.491 110.411V95.2752C180.491 92.6979 178.4 90.6086 175.822 90.6086Z" fill="white"/>
<path d="M175.821 115.497H67.7964C66.4471 115.496 65.1535 114.959 64.1994 114.006C63.2453 113.052 62.7086 111.759 62.707 110.411V95.2752C62.7086 93.9266 63.2453 92.6337 64.1994 91.68C65.1535 90.7264 66.4471 90.1899 67.7964 90.1882H175.821C177.171 90.1898 178.464 90.7262 179.419 91.6799C180.373 92.6335 180.91 93.9265 180.911 95.2752V110.411C180.91 111.759 180.373 113.052 179.419 114.006C178.464 114.959 177.171 115.496 175.821 115.497ZM67.7964 91.0281C66.6698 91.0293 65.5897 91.4772 64.7931 92.2734C63.9965 93.0696 63.5485 94.1492 63.5473 95.2752V110.411C63.5486 111.536 63.9966 112.616 64.7932 113.412C65.5898 114.208 66.6699 114.656 67.7964 114.657H175.821C176.948 114.656 178.028 114.208 178.825 113.412C179.621 112.616 180.069 111.537 180.071 110.411V95.2752C180.07 94.1492 179.621 93.0696 178.825 92.2734C178.028 91.4772 176.948 91.0293 175.821 91.0281H67.7964Z" fill="#292A2E"/>
<path d="M175.822 125.577H67.7962C65.2174 125.577 63.127 127.667 63.127 130.244V145.38C63.127 147.957 65.2174 150.046 67.7962 150.046H175.822C178.4 150.046 180.491 147.957 180.491 145.38V130.244C180.491 127.667 178.4 125.577 175.822 125.577Z" fill="white"/>
<path d="M175.821 150.466H67.7964C66.4469 150.464 65.1531 149.928 64.1989 148.974C63.2448 148.02 62.7083 146.727 62.707 145.378V130.244C62.7086 128.895 63.2453 127.603 64.1994 126.649C65.1535 125.695 66.4471 125.159 67.7964 125.157H175.821C177.171 125.159 178.464 125.695 179.419 126.649C180.373 127.602 180.91 128.895 180.911 130.244V145.378C180.91 146.727 180.373 148.02 179.419 148.974C178.465 149.928 177.171 150.465 175.821 150.466ZM67.7964 125.997C66.6699 125.999 65.5898 126.446 64.7932 127.243C63.9966 128.039 63.5486 129.118 63.5473 130.244V145.378C63.5486 146.504 63.9966 147.584 64.7932 148.38C65.5898 149.176 66.6699 149.624 67.7964 149.625H175.821C176.948 149.624 178.028 149.176 178.825 148.38C179.621 147.584 180.07 146.504 180.071 145.378V130.244C180.07 129.118 179.621 128.039 178.825 127.242C178.028 126.446 176.948 125.998 175.821 125.997H67.7964Z" fill="#292A2E"/>
<path d="M121.808 72.4077C135.66 72.4077 146.889 61.1848 146.889 47.3407C146.889 33.4966 135.66 22.2737 121.808 22.2737C107.957 22.2737 96.7275 33.4966 96.7275 47.3407C96.7275 61.1848 107.957 72.4077 121.808 72.4077Z" fill="white"/>
<path d="M121.809 72.8277C116.765 72.8277 111.835 71.3329 107.641 68.5323C103.447 65.7318 100.179 61.7513 98.2488 57.0942C96.3187 52.437 95.8137 47.3124 96.7976 42.3685C97.7816 37.4245 100.21 32.8831 103.777 29.3187C107.343 25.7543 111.887 23.3269 116.834 22.3435C121.78 21.3601 126.908 21.8648 131.567 23.7938C136.227 25.7229 140.21 28.9896 143.012 33.1809C145.814 37.3722 147.31 42.2999 147.31 47.3407C147.302 54.098 144.613 60.5763 139.832 65.3544C135.052 70.1325 128.57 72.8201 121.809 72.8277ZM121.809 22.6936C116.931 22.6936 112.163 24.1391 108.108 26.8474C104.052 29.5557 100.892 33.405 99.0251 37.9087C97.1586 42.4124 96.6703 47.3681 97.6218 52.1491C98.5733 56.9302 100.922 61.3219 104.371 64.7688C107.82 68.2158 112.214 70.5632 116.998 71.5142C121.781 72.4652 126.74 71.9771 131.246 70.1117C135.752 68.2462 139.604 65.0871 142.313 61.0339C145.023 56.9807 146.469 52.2155 146.469 47.3407C146.462 40.8062 143.861 34.5413 139.238 29.9207C134.615 25.3001 128.347 22.701 121.809 22.6936Z" fill="#292A2E"/>
<path opacity="0.5" d="M146.332 47.3407C146.339 53.1427 144.279 58.7577 140.521 63.1799C138.207 60.483 135.336 58.3183 132.106 56.8345C128.875 55.3506 125.362 54.5827 121.807 54.5833C118.252 54.5839 114.739 55.3531 111.509 56.8382C108.279 58.3232 105.409 60.4888 103.096 63.1866C100.544 60.1764 98.7565 56.595 97.886 52.7468C97.0155 48.8985 97.0872 44.8971 98.0953 41.0824C99.1033 37.2678 101.018 33.7528 103.676 30.836C106.334 27.9191 109.658 25.6867 113.364 24.3284C117.07 22.9701 121.05 22.526 124.964 23.0339C128.879 23.5418 132.613 24.9867 135.85 27.2457C139.086 29.5048 141.729 32.5113 143.554 36.0098C145.379 39.5083 146.332 43.3953 146.332 47.3407Z" fill="#367CFF"/>
<path d="M140.522 63.1799C138.22 65.8965 135.354 68.0795 132.122 69.5769C128.891 71.0744 125.372 71.8504 121.81 71.851C118.248 71.8517 114.729 71.0769 111.497 69.5806C108.265 68.0843 105.398 65.9024 103.096 63.1866C105.409 60.4889 108.28 58.3232 111.509 56.8382C114.739 55.3532 118.252 54.584 121.807 54.5833C125.362 54.5827 128.875 55.3506 132.106 56.8345C135.336 58.3183 138.207 60.483 140.522 63.1799Z" fill="white"/>
<path d="M121.809 50.0102C127.284 50.0102 131.722 45.5746 131.722 40.1029C131.722 34.6313 127.284 30.1956 121.809 30.1956C116.335 30.1956 111.896 34.6313 111.896 40.1029C111.896 45.5746 116.335 50.0102 121.809 50.0102Z" fill="white"/>
<g opacity="0.4">
<path opacity="0.4" d="M72.2207 140.792C73.8673 140.792 75.2021 139.458 75.2021 137.812C75.2021 136.166 73.8673 134.832 72.2207 134.832C70.5741 134.832 69.2393 136.166 69.2393 137.812C69.2393 139.458 70.5741 140.792 72.2207 140.792Z" fill="#292A2E"/>
<path opacity="0.4" d="M81.5469 140.792C83.1935 140.792 84.5283 139.458 84.5283 137.812C84.5283 136.166 83.1935 134.832 81.5469 134.832C79.9003 134.832 78.5654 136.166 78.5654 137.812C78.5654 139.458 79.9003 140.792 81.5469 140.792Z" fill="#292A2E"/>
<path opacity="0.4" d="M90.873 140.792C92.5196 140.792 93.8545 139.458 93.8545 137.812C93.8545 136.166 92.5196 134.832 90.873 134.832C89.2264 134.832 87.8916 136.166 87.8916 137.812C87.8916 139.458 89.2264 140.792 90.873 140.792Z" fill="#292A2E"/>
<path opacity="0.4" d="M100.199 140.792C101.846 140.792 103.181 139.458 103.181 137.812C103.181 136.166 101.846 134.832 100.199 134.832C98.5526 134.832 97.2178 136.166 97.2178 137.812C97.2178 139.458 98.5526 140.792 100.199 140.792Z" fill="#292A2E"/>
<path opacity="0.4" d="M109.525 140.792C111.172 140.792 112.507 139.458 112.507 137.812C112.507 136.166 111.172 134.832 109.525 134.832C107.879 134.832 106.544 136.166 106.544 137.812C106.544 139.458 107.879 140.792 109.525 140.792Z" fill="#292A2E"/>
<path opacity="0.4" d="M118.852 140.792C120.498 140.792 121.833 139.458 121.833 137.812C121.833 136.166 120.498 134.832 118.852 134.832C117.205 134.832 115.87 136.166 115.87 137.812C115.87 139.458 117.205 140.792 118.852 140.792Z" fill="#292A2E"/>
<path opacity="0.4" d="M128.178 140.792C129.824 140.792 131.159 139.458 131.159 137.812C131.159 136.166 129.824 134.832 128.178 134.832C126.531 134.832 125.196 136.166 125.196 137.812C125.196 139.458 126.531 140.792 128.178 140.792Z" fill="#292A2E"/>
</g>
<g opacity="0.3">
<path opacity="0.3" d="M75.1775 102.663V103.671H71.3486V102.663H75.1775Z" fill="black"/>
<path opacity="0.3" d="M79.9353 102.663V103.671H76.1064V102.663H79.9353Z" fill="black"/>
<path opacity="0.3" d="M84.6941 102.663V103.671H80.8652V102.663H84.6941Z" fill="black"/>
<path opacity="0.3" d="M89.452 102.663V103.671H85.623V102.663H89.452Z" fill="black"/>
<path opacity="0.3" d="M94.2102 102.663V103.671H90.3809V102.663H94.2102Z" fill="black"/>
<path opacity="0.3" d="M102.797 108.35C101.945 108.787 100.996 109.001 100.039 108.971C97.4968 108.971 95.3418 107.111 95.3418 104.136C95.3418 100.945 97.559 98.187 101 98.187C103.697 98.187 105.511 100.077 105.511 102.665C105.511 104.989 104.209 106.352 102.752 106.352C102.132 106.352 101.558 105.932 101.605 104.989H101.542C101.342 105.397 101.031 105.742 100.645 105.982C100.259 106.223 99.8129 106.351 99.3577 106.352C98.4585 106.352 97.6833 105.624 97.6833 104.4C97.6816 103.917 97.7755 103.439 97.9595 102.993C98.1436 102.546 98.4141 102.141 98.7557 101.8C99.0972 101.458 99.5029 101.188 99.9495 101.004C100.396 100.82 100.875 100.726 101.358 100.728C101.927 100.72 102.492 100.83 103.016 101.053L102.489 103.858C102.257 105.033 102.443 105.579 102.954 105.593C103.745 105.608 104.629 104.555 104.629 102.758C104.629 100.511 103.28 98.9 100.877 98.9C98.3501 98.9 96.2262 100.898 96.2262 104.044C96.2262 106.631 97.9161 108.227 100.211 108.227C101.024 108.246 101.829 108.059 102.551 107.685L102.797 108.35ZM101.944 101.656C101.692 101.582 101.431 101.546 101.169 101.548C99.8047 101.548 98.7043 102.834 98.7043 104.337C98.7043 105.018 99.0455 105.513 99.7274 105.513C100.627 105.513 101.448 104.366 101.618 103.405L101.944 101.656Z" fill="black"/>
<path opacity="0.3" d="M110.39 102.663V103.671H106.562V102.663H110.39Z" fill="black"/>
<path opacity="0.3" d="M115.15 102.663V103.671H111.32V102.663H115.15Z" fill="black"/>
<path opacity="0.3" d="M119.907 102.663V103.671H116.078V102.663H119.907Z" fill="black"/>
</g>
</svg>
