<svg width="32" height="32" viewBox="0 0 32 32" fill="none" xmlns="http://www.w3.org/2000/svg">
<path d="M13.1429 2.28571C16.0224 2.28571 18.784 3.42958 20.8201 5.46569C22.8562 7.5018 24 10.2634 24 13.1428C24 15.5223 23.2343 17.7223 21.9372 19.512L29.2126 26.7874C29.5272 27.0974 29.71 27.5168 29.7229 27.9583C29.7359 28.3997 29.5779 28.8291 29.282 29.157C28.9861 29.4849 28.5751 29.6859 28.1347 29.7182C27.6942 29.7505 27.2583 29.6115 26.9178 29.3303L26.7875 29.2126L19.512 21.9371C17.6608 23.2815 15.4308 24.0037 13.1429 24C10.2634 24 7.50186 22.8561 5.46575 20.82C3.42964 18.7839 2.28577 16.0223 2.28577 13.1428C2.28577 10.2634 3.42964 7.5018 5.46575 5.46569C7.50186 3.42958 10.2634 2.28571 13.1429 2.28571ZM13.1429 5.71428C11.1727 5.71428 9.28324 6.49693 7.89012 7.89005C6.49699 9.28318 5.71434 11.1727 5.71434 13.1428C5.71434 15.113 6.49699 17.0025 7.89012 18.3956C9.28324 19.7888 11.1727 20.5714 13.1429 20.5714C15.1131 20.5714 17.0026 19.7888 18.3957 18.3956C19.7888 17.0025 20.5715 15.113 20.5715 13.1428C20.5715 11.1727 19.7888 9.28318 18.3957 7.89005C17.0026 6.49693 15.1131 5.71428 13.1429 5.71428Z" fill="#2C415D"/>
</svg>
