<svg width="28" height="28" viewBox="0 0 28 28" fill="none" xmlns="http://www.w3.org/2000/svg">
<path d="M11.1429 0.285706C14.0224 0.285706 16.784 1.42958 18.8201 3.46569C20.8562 5.5018 22 8.26335 22 11.1428C22 13.5223 21.2343 15.7223 19.9372 17.512L27.2126 24.7874C27.5272 25.0974 27.71 25.5168 27.7229 25.9583C27.7359 26.3997 27.5779 26.8291 27.282 27.157C26.9861 27.4849 26.5751 27.6859 26.1347 27.7182C25.6942 27.7505 25.2583 27.6115 24.9178 27.3303L24.7875 27.2126L17.512 19.9371C15.6608 21.2815 13.4308 22.0037 11.1429 22C8.26341 22 5.50186 20.8561 3.46575 18.82C1.42964 16.7839 0.285767 14.0223 0.285767 11.1428C0.285767 8.26335 1.42964 5.5018 3.46575 3.46569C5.50186 1.42958 8.26341 0.285706 11.1429 0.285706ZM11.1429 3.71428C9.17273 3.71428 7.28324 4.49693 5.89012 5.89005C4.49699 7.28318 3.71434 9.17267 3.71434 11.1428C3.71434 13.113 4.49699 15.0025 5.89012 16.3956C7.28324 17.7888 9.17273 18.5714 11.1429 18.5714C13.1131 18.5714 15.0026 17.7888 16.3957 16.3956C17.7888 15.0025 18.5715 13.113 18.5715 11.1428C18.5715 9.17267 17.7888 7.28318 16.3957 5.89005C15.0026 4.49693 13.1131 3.71428 11.1429 3.71428Z" fill="#2C415D"/>
</svg>
