<svg width="40" height="40" viewBox="0 0 40 40" fill="none" xmlns="http://www.w3.org/2000/svg">
<path fill-rule="evenodd" clip-rule="evenodd" d="M5.48816 5.48816C6.13903 4.83728 7.1943 4.83728 7.84518 5.48816L20 17.643L32.1548 5.48816C32.8057 4.83728 33.861 4.83728 34.5118 5.48816C35.1627 6.13903 35.1627 7.1943 34.5118 7.84518L22.357 20L34.5118 32.1548C35.1627 32.8057 35.1627 33.861 34.5118 34.5118C33.861 35.1627 32.8057 35.1627 32.1548 34.5118L20 22.357L7.84518 34.5118C7.1943 35.1627 6.13903 35.1627 5.48816 34.5118C4.83728 33.861 4.83728 32.8057 5.48816 32.1548L17.643 20L5.48816 7.84518C4.83728 7.1943 4.83728 6.13903 5.48816 5.48816Z" fill="#2C415D"/>
</svg>
