<svg width="386" height="244" viewBox="0 0 386 244" fill="none" xmlns="http://www.w3.org/2000/svg">
<path d="M386 233.712H0C4.22959 222.919 12.0389 213.762 23.0512 211.046C39.1582 207.077 56.2038 217.989 72.275 213.886C81.4056 211.558 88.5939 204.772 96.1473 199.137C124.643 177.877 163.694 171.593 197.414 182.846C215.04 188.726 231.1 199.007 249.155 203.378C272.503 209.032 296.919 204.343 320.929 203.571C344.313 202.819 377.818 212.353 386 233.712Z" fill="#F3F5FD"/>
<path d="M293.634 10.386C295.549 10.386 297.102 8.83232 297.102 6.91577C297.102 4.99923 295.549 3.44556 293.634 3.44556C291.719 3.44556 290.166 4.99923 290.166 6.91577C290.166 8.83232 291.719 10.386 293.634 10.386Z" fill="white"/>
<path d="M308.667 154.412C308.667 154.412 305.839 164.551 304.251 169.811C304.176 170.061 304.16 170.324 304.205 170.581C304.249 170.837 304.353 171.08 304.509 171.289C304.664 171.498 304.866 171.667 305.098 171.784C305.331 171.901 305.588 171.962 305.848 171.961H315.771C316.2 171.961 316.612 171.796 316.922 171.5C317.232 171.204 317.416 170.8 317.437 170.371L318.106 156.258L308.667 154.412Z" fill="#0F1011"/>
<path d="M323.875 176.965C323.875 176.965 320.988 175.437 321.626 167.576L315.665 166.475C315.665 166.475 316.341 173.522 313.328 175.762L323.875 176.965Z" fill="#E98862"/>
<path opacity="0.15" d="M314.547 174.288L319.495 170.493L315.606 170.456C315.495 171.788 315.136 173.088 314.547 174.288Z" fill="black"/>
<path d="M325.004 164.525C324.594 166.91 323.296 169.17 321.194 169.942C318.903 170.854 316.424 171.192 313.974 170.925C307.449 170.395 308.726 155.549 311.821 152.662C314.916 149.776 324.008 151.594 325.119 156.416C325.693 158.91 325.395 162.257 325.004 164.525Z" fill="#E98862"/>
<path d="M315.669 162.696C315.968 162.696 316.21 162.454 316.21 162.155C316.21 161.857 315.968 161.615 315.669 161.615C315.371 161.615 315.129 161.857 315.129 162.155C315.129 162.454 315.371 162.696 315.669 162.696Z" fill="#0F1011"/>
<path d="M311.405 162.35C311.703 162.35 311.945 162.108 311.945 161.809C311.945 161.511 311.703 161.268 311.405 161.268C311.106 161.268 310.864 161.511 310.864 161.809C310.864 162.108 311.106 162.35 311.405 162.35Z" fill="#0F1011"/>
<path d="M311.899 160.384L310.467 160.403" stroke="#0F1011" stroke-width="1.362" stroke-miterlimit="10" stroke-linecap="round"/>
<path d="M316.835 160.92L315.423 160.582" stroke="#0F1011" stroke-width="1.362" stroke-miterlimit="10" stroke-linecap="round"/>
<path d="M315.423 166.416C315.423 166.416 313.428 166.628 312.028 166.14C312.028 166.14 312.041 167.455 313.62 167.584C315.199 167.712 315.423 166.416 315.423 166.416Z" fill="white"/>
<g opacity="0.15">
<path opacity="0.15" d="M313.272 165.158C313.317 165.158 313.36 165.142 313.394 165.113C313.429 165.084 313.451 165.043 313.458 164.999C313.464 164.954 313.455 164.909 313.431 164.871C313.407 164.833 313.37 164.805 313.327 164.792L312.227 164.456L312.995 162.742C313.006 162.719 313.012 162.695 313.014 162.67C313.015 162.644 313.012 162.619 313.003 162.596C312.995 162.572 312.982 162.55 312.965 162.532C312.948 162.513 312.927 162.498 312.904 162.488C312.881 162.478 312.856 162.472 312.831 162.472C312.806 162.471 312.781 162.476 312.758 162.486C312.734 162.495 312.713 162.509 312.695 162.527C312.678 162.545 312.664 162.566 312.654 162.59L311.714 164.69L313.217 165.15C313.235 165.156 313.253 165.158 313.272 165.158Z" fill="black"/>
</g>
<path d="M308.327 155.627C308.327 155.627 309.282 147.895 321.663 149.794C324.75 150.268 329.124 152.679 329.833 160.583C330.157 164.208 331.405 167.626 332.358 169.79C332.471 170.044 332.519 170.322 332.497 170.599C332.475 170.877 332.384 171.144 332.233 171.377C332.081 171.61 331.874 171.802 331.63 171.934C331.386 172.067 331.113 172.137 330.835 172.137L322.132 172.14C321.913 172.14 321.697 172.097 321.494 172.014C321.292 171.931 321.108 171.808 320.954 171.654C320.799 171.499 320.676 171.316 320.592 171.114C320.508 170.912 320.464 170.695 320.464 170.476C320.464 170.452 320.464 170.427 320.464 170.402C320.526 168.919 320.576 166.41 320.491 162.573C320.039 160.384 321.244 158.84 319.495 159.344C312.998 161.209 308.815 155.752 308.327 155.627Z" fill="#0F1011"/>
<path d="M318.401 164.484C318.351 165.091 318.545 165.691 318.939 166.155C319.332 166.618 319.894 166.906 320.5 166.955C321.105 167.005 321.706 166.811 322.169 166.417C322.632 166.023 322.92 165.461 322.969 164.855C323.027 164.26 322.846 163.666 322.467 163.204C322.088 162.742 321.541 162.45 320.946 162.391C320.921 162.389 320.895 162.387 320.872 162.385C319.237 162.331 318.503 163.222 318.401 164.484Z" fill="#E98862"/>
<path d="M301.507 230.942C300.799 230.824 292.815 229.458 292.815 229.458" stroke="#E98862" stroke-width="21" stroke-miterlimit="10"/>
<path d="M287.594 242.221C287.56 242.429 287.569 242.641 287.621 242.846C287.673 243.05 287.767 243.241 287.896 243.408C288.025 243.574 288.188 243.712 288.373 243.813C288.558 243.914 288.761 243.976 288.971 243.994C289.262 244.02 289.554 243.962 289.813 243.827C290.072 243.692 290.287 243.486 290.433 243.233L294.952 234.738C295.038 234.574 295.089 234.392 295.099 234.206C295.109 234.021 295.079 233.835 295.011 233.661C294.36 232.281 294.169 230.727 294.467 229.23C294.746 228.071 295.345 227.015 296.195 226.181C296.278 226.109 296.338 226.015 296.369 225.91C296.4 225.805 296.401 225.693 296.371 225.588C296.341 225.482 296.281 225.388 296.2 225.315C296.118 225.242 296.017 225.194 295.909 225.176L291.512 224.439C291.382 224.417 291.249 224.421 291.121 224.451C290.993 224.481 290.872 224.536 290.765 224.612C290.658 224.689 290.567 224.786 290.498 224.898C290.429 225.01 290.382 225.134 290.361 225.264L287.594 242.221Z" fill="#C1D8ED"/>
<path d="M325.614 213.908C328.934 214.046 332.312 214.143 335.692 214.227L340.771 214.339L345.844 214.43L346.35 214.439C348.445 214.478 350.448 215.311 351.954 216.77C353.459 218.229 354.357 220.204 354.464 222.299C354.572 224.393 353.882 226.451 352.534 228.056C351.186 229.662 349.279 230.696 347.199 230.951L297.061 237.043L295.019 222.215L344.932 214.505L346.287 231.025L341.136 231.358L335.988 231.67C332.55 231.869 329.111 232.055 325.611 232.199L325.614 213.908Z" fill="#262626"/>
<path d="M331.44 226.522C332.133 226.709 338.827 227.682 338.827 227.682" stroke="#E98862" stroke-width="21" stroke-miterlimit="10"/>
<path d="M346.908 238.299C346.98 238.497 347.011 238.708 346.999 238.918C346.987 239.129 346.931 239.334 346.836 239.522C346.74 239.71 346.607 239.877 346.445 240.011C346.282 240.145 346.094 240.244 345.891 240.302C345.611 240.383 345.313 240.382 345.033 240.298C344.753 240.215 344.503 240.054 344.311 239.833L338.264 232.351C338.148 232.206 338.064 232.037 338.019 231.857C337.974 231.677 337.969 231.489 338.003 231.306C338.38 229.826 338.273 228.265 337.697 226.851C337.203 225.767 336.415 224.844 335.421 224.186C335.327 224.131 335.25 224.05 335.2 223.953C335.149 223.856 335.127 223.746 335.137 223.637C335.146 223.528 335.187 223.424 335.253 223.337C335.32 223.25 335.409 223.183 335.512 223.145L339.69 221.587C339.813 221.541 339.944 221.519 340.076 221.524C340.207 221.529 340.337 221.56 340.456 221.615C340.576 221.67 340.683 221.748 340.772 221.844C340.862 221.941 340.931 222.054 340.976 222.178L346.908 238.299Z" fill="#C1D8ED"/>
<path d="M314.481 230.855C312.38 230.676 310.281 230.547 308.181 230.426C306.081 230.314 303.981 230.202 301.883 230.128L298.734 230.006L295.586 229.915C293.487 229.845 291.389 229.817 289.291 229.776L290.018 214.692C293.946 215.242 297.879 215.746 301.811 216.264C305.742 216.782 309.679 217.258 313.614 217.742L319.521 218.439L325.431 219.102C329.374 219.526 333.317 219.947 337.268 220.294L335.534 235.162C331.609 234.59 327.675 234.091 323.741 233.595L317.837 232.878L311.929 232.194C307.987 231.758 304.047 231.316 300.103 230.912C296.159 230.509 292.215 230.095 288.266 229.725C286.372 229.547 284.615 228.66 283.347 227.241C282.079 225.823 281.393 223.978 281.426 222.075C281.459 220.172 282.209 218.351 283.525 216.978C284.842 215.604 286.628 214.779 288.527 214.667L288.994 214.64C291.089 214.517 293.184 214.405 295.278 214.253L298.42 214.038L301.562 213.792C303.656 213.634 305.75 213.438 307.843 213.244C309.937 213.04 312.03 212.827 314.122 212.566L314.481 230.855Z" fill="#262626"/>
<path d="M333.237 211.618L334.341 230.173L302.45 229.798L304.857 213.371L333.237 211.618Z" fill="#262626"/>
<path d="M283.831 176.916C283.831 176.916 283.775 172.432 280.573 172.665C278.552 172.812 268.952 172.367 268.809 173.242C268.456 175.407 277.237 175.936 278.034 177.953L283.831 176.916Z" fill="#E98862"/>
<path d="M344.446 207.978L335.4 181.059C335.032 179.749 334.318 178.562 333.332 177.625C331.627 175.919 328.684 174.817 325.095 174.814C324.826 176.908 312.12 176.915 312.023 174.862C311.538 174.87 311.162 174.877 310.927 174.888C307.418 175.04 305.342 176.011 304.169 177.561L292.194 189.222L284.208 174.295L277.302 177.996L287.747 197.511C288.034 198.047 288.44 198.508 288.936 198.859C289.431 199.21 290.001 199.442 290.6 199.534C291.2 199.627 291.813 199.58 292.391 199.395C292.97 199.21 293.497 198.894 293.932 198.47L303.434 189.218C303.806 191.634 304.032 194.07 304.108 196.513C304.254 208.631 300.982 210.915 302.594 214.618C304.157 218.213 334.869 219.707 335.28 213.383C335.284 213.316 335.285 213.25 335.287 213.184L340.468 213.342C340.51 213.342 340.551 213.342 340.593 213.342C341.238 213.342 341.874 213.189 342.449 212.894C343.023 212.599 343.519 212.172 343.895 211.648C344.272 211.123 344.519 210.516 344.614 209.878C344.71 209.239 344.653 208.587 344.447 207.975L344.446 207.978ZM334.874 205.029L333.019 204.972C332.335 202.713 331.991 200.365 331.996 198.004C331.996 197.556 332.022 197.113 332.066 196.673L334.874 205.029Z" fill="#367CFF"/>
<path d="M312.023 174.863C312.12 176.916 313.236 179.936 316.679 180.164C321.268 180.466 324.826 176.909 325.095 174.815H325.084C320.566 174.815 314.657 174.822 312.023 174.863Z" fill="#E98862"/>
<path d="M322.627 185.12L323.946 204.786C323.961 205.017 323.929 205.25 323.851 205.469C323.773 205.688 323.651 205.888 323.492 206.058C323.334 206.227 323.142 206.363 322.929 206.455C322.716 206.548 322.486 206.595 322.254 206.595H294.806C294.387 206.595 293.982 206.44 293.671 206.159C293.36 205.878 293.163 205.491 293.12 205.073L291.089 185.408C291.065 185.172 291.09 184.933 291.164 184.707C291.237 184.482 291.358 184.274 291.517 184.097C291.676 183.921 291.87 183.78 292.087 183.684C292.304 183.587 292.538 183.537 292.776 183.537H320.936C321.366 183.537 321.78 183.701 322.094 183.995C322.408 184.289 322.599 184.691 322.627 185.12Z" fill="#9EBCEA"/>
<path d="M297.1 206.596H325.938C326.592 206.596 327.122 206.066 327.122 205.412C327.122 204.758 326.592 204.228 325.938 204.228H297.1C296.446 204.228 295.916 204.758 295.916 205.412C295.916 206.066 296.446 206.596 297.1 206.596Z" fill="#9EBCEA"/>
<path d="M306.791 197.68C308.233 197.68 309.402 196.51 309.402 195.067C309.402 193.624 308.233 192.454 306.791 192.454C305.348 192.454 304.179 193.624 304.179 195.067C304.179 196.51 305.348 197.68 306.791 197.68Z" fill="white"/>
<path d="M310.553 209.093C312.228 210.128 314.821 210.617 317.081 210.796L317.208 206.675C316.145 206.645 314.511 206.533 312.911 206.596C312.188 206.006 311.771 205.831 311.029 205.088C310.239 204.297 308.166 203.823 307.774 205.088C307.382 206.354 309.083 208.183 310.553 209.093Z" fill="#E98862"/>
<path d="M54.8729 151.969L51.0283 151.059L46.2084 171.46L50.0529 172.37L54.8729 151.969Z" fill="#F0F6FF"/>
<path d="M46.8004 149.475L44.666 149.869L47.967 167.776L50.1014 167.382L46.8004 149.475Z" fill="#C1D8ED"/>
<path d="M46.7996 149.469L44.6675 149.875L45.0431 151.85L47.1752 151.444L46.7996 149.469Z" fill="#DEE8F5"/>
<path d="M53.4068 154.029L46.4902 171.598L47.6755 172.065L54.5921 154.496L53.4068 154.029Z" fill="#0CBC8B"/>
<path d="M54.9215 161.714H44.4956V175.049H54.9215V161.714Z" fill="#262626"/>
<path d="M66.0359 229.172H61.7358V233.916H66.0359V229.172Z" fill="#C1D8ED"/>
<path d="M25.1243 229.172H20.8242V233.916H25.1243V229.172Z" fill="#C1D8ED"/>
<path d="M17.1221 229.722H35.1641L35.1641 175.089H17.1221L17.1221 229.722Z" fill="#C1D8ED"/>
<path d="M66.0906 229.172H84.5664V176.299H66.0906V229.172Z" fill="#C1D8ED"/>
<path d="M33.9492 175.089H85.7821V229.722H33.9492V175.089ZM83.3517 177.521H36.3796V227.29H83.3517V177.521Z" fill="#DEE8F5"/>
<path d="M33.9492 199.601H85.7821V229.722H33.9492V199.601ZM83.3517 202.033H36.3796V227.29H83.3517V202.033Z" fill="#DEE8F5"/>
<path d="M62.2843 181.854V185.334V199.581H40.2656V185.334V181.854H62.2843Z" fill="#C1D8ED"/>
<path d="M69.5011 185.334H47.4824V199.581H69.5011V185.334Z" fill="#DEE8F5"/>
<path d="M69.5011 185.334H47.4824V186.402H69.5011V185.334Z" fill="#C1D8ED"/>
<path d="M47.4823 185.334H69.501V181.854H47.4823V185.334Z" fill="#DEE8F5"/>
<path d="M56.0516 190.334H60.9321C61.2123 190.334 61.4395 190.107 61.4395 189.827V188.703C61.4395 188.422 61.2123 188.195 60.9321 188.195H56.0516C55.7714 188.195 55.5442 188.422 55.5442 188.703V189.827C55.5442 190.107 55.7714 190.334 56.0516 190.334Z" fill="white"/>
<path d="M82.471 229.172H78.1709V233.916H82.471V229.172Z" fill="#DEE8F5"/>
<path d="M41.5594 229.172H37.2593V233.916H41.5594V229.172Z" fill="#DEE8F5"/>
<path d="M42.1514 227.29H66.0894V221.866H42.1514V227.29Z" fill="#C1D8ED"/>
<path d="M41.7403 216.454H65.6782V211.03H41.7403V216.454Z" fill="#C1D8ED"/>
<path d="M50.3198 227.29H75.6343V221.866H50.3198V227.29Z" fill="#DEE8F5"/>
<path opacity="0.62" d="M52.3859 227.29H53.6147V221.866H52.3859V227.29Z" fill="#C1D8ED"/>
<path opacity="0.62" d="M54.8435 227.29H56.0723V221.866H54.8435V227.29Z" fill="#C1D8ED"/>
<path d="M72.7325 226.328C73.6979 226.328 74.4806 225.544 74.4806 224.578C74.4806 223.612 73.6979 222.829 72.7325 222.829C71.767 222.829 70.9844 223.612 70.9844 224.578C70.9844 225.544 71.767 226.328 72.7325 226.328Z" fill="#F3F5FD"/>
<path d="M49.9086 216.454H75.2231V211.03H49.9086V216.454Z" fill="#DEE8F5"/>
<path d="M55.9276 215.232H73.5928V212.251H55.9276V215.232Z" fill="#F3F5FD"/>
<path opacity="0.62" d="M51.9746 216.454H54.2998V211.03H51.9746V216.454Z" fill="#C1D8ED"/>
<path d="M64.1367 216.448H40.1987V221.872H64.1367V216.448Z" fill="#C1D8ED"/>
<path d="M73.6817 216.448H48.3672V221.872H73.6817V216.448Z" fill="#F3F5FD"/>
<path d="M71.6155 216.448H70.3867V221.872H71.6155V216.448Z" fill="#DEE8F5"/>
<path d="M69.158 216.448H67.9292V221.872H69.158V216.448Z" fill="#DEE8F5"/>
<path d="M51.2696 220.909C52.235 220.909 53.0177 220.126 53.0177 219.16C53.0177 218.194 52.235 217.411 51.2696 217.411C50.3041 217.411 49.5215 218.194 49.5215 219.16C49.5215 220.126 50.3041 220.909 51.2696 220.909Z" fill="#DEE8F5"/>
<path d="M54.8611 220.49H66.0356V217.831H54.8611V220.49Z" fill="#DEE8F5"/>
<path d="M301.394 0H69.7002V167.906H301.394V0Z" fill="#DEE8F5"/>
<path d="M121.936 116.482H78.1709V160.277H121.936V116.482Z" fill="white"/>
<path d="M178.828 116.482H135.063V160.277H178.828V116.482Z" fill="white"/>
<path d="M235.72 116.482H191.955V160.277H235.72V116.482Z" fill="white"/>
<path d="M292.612 116.482H248.847V160.277H292.612V116.482Z" fill="white"/>
<path d="M292.612 22.0946H78.1709V108.119H292.612V22.0946Z" fill="white"/>
<path d="M301.394 0H69.7002V13.8312H301.394V0Z" fill="#C1D8ED"/>
<path d="M147.326 65.5462C147.326 70.0543 145.99 74.4611 143.488 78.2094C140.985 81.9577 137.427 84.8792 133.265 86.6043C129.103 88.3295 124.524 88.7808 120.105 87.9014C115.687 87.0219 111.628 84.8511 108.443 81.6634C105.257 78.4757 103.088 74.4144 102.209 69.993C101.33 65.5715 101.781 60.9886 103.505 56.8237C105.229 52.6588 108.149 49.099 111.894 46.5945C115.64 44.0899 120.044 42.7532 124.549 42.7532C127.543 42.7441 130.509 43.3275 133.276 44.4698C136.044 45.6121 138.558 47.2907 140.675 49.409C142.792 51.5273 144.469 54.0436 145.611 56.813C146.752 59.5825 147.335 62.5505 147.326 65.5462Z" fill="#C1D8ED"/>
<path d="M124.549 67.8951C129.529 67.8951 133.566 63.8551 133.566 58.8716C133.566 53.8881 129.529 49.8481 124.549 49.8481C119.569 49.8481 115.532 53.8881 115.532 58.8716C115.532 63.8551 119.569 67.8951 124.549 67.8951Z" fill="#DEE8F5"/>
<path d="M140.963 81.3515C138.837 83.5613 136.288 85.3192 133.468 86.52C130.647 87.7207 127.614 88.3396 124.549 88.3396C121.484 88.3396 118.45 87.7207 115.63 86.52C112.81 85.3192 110.26 83.5613 108.135 81.3515C111.206 74.4827 117.406 69.7888 124.549 69.7888C131.691 69.7888 137.891 74.4831 140.963 81.3515Z" fill="#DEE8F5"/>
<path d="M202.593 42.8947H156.608V56.8009H202.593V42.8947Z" fill="#DEE8F5"/>
<path d="M269.013 65.4028H156.608V70.4622H269.013V65.4028Z" fill="#DEE8F5"/>
<path d="M269.013 79.0642H156.608V84.1236H269.013V79.0642Z" fill="#DEE8F5"/>
<path d="M94.5429 146.745C100.724 146.745 105.734 141.731 105.734 135.546C105.734 129.361 100.724 124.347 94.5429 124.347C88.3621 124.347 83.3516 129.361 83.3516 135.546C83.3516 141.731 88.3621 146.745 94.5429 146.745Z" fill="#C1D8ED"/>
<path d="M114.555 136.758H96.9131V154.412H114.555V136.758Z" fill="#DEE8F5"/>
<path d="M170.258 135.546V153.2H152.616" fill="#DEE8F5"/>
<path d="M151.024 124.347H144.212V149.494H151.024V124.347Z" fill="#DEE8F5"/>
<path d="M161.437 135.546C163.372 135.546 164.94 133.976 164.94 132.04C164.94 130.104 163.372 128.534 161.437 128.534C159.502 128.534 157.934 130.104 157.934 132.04C157.934 133.976 159.502 135.546 161.437 135.546Z" fill="#C1D8ED"/>
<path d="M225.138 134.338V127.521H200.008V134.338H225.138Z" fill="#DEE8F5"/>
<path d="M218.422 151.478C223.528 151.478 227.667 147.336 227.667 142.226C227.667 137.117 223.528 132.975 218.422 132.975C213.316 132.975 209.177 137.117 209.177 142.226C209.177 147.336 213.316 151.478 218.422 151.478Z" fill="#C1D8ED"/>
<path d="M283.294 134.556V127.739H258.165V134.556H283.294Z" fill="#C1D8ED"/>
<path d="M276.315 150.492C278.25 150.492 279.818 148.922 279.818 146.986C279.818 145.05 278.25 143.48 276.315 143.48C274.38 143.48 272.812 145.05 272.812 146.986C272.812 148.922 274.38 150.492 276.315 150.492Z" fill="#C1D8ED"/>
<path d="M268.799 152.016L256.324 139.534L268.799 127.05" fill="#DEE8F5"/>
</svg>
