<svg width="150" height="150" viewBox="0 0 150 150" fill="none" xmlns="http://www.w3.org/2000/svg">
<rect width="150" height="150" rx="75" fill="#F1F1F1"/>
<path d="M125.065 122.816C95.5733 145.524 54.4376 145.342 25.1475 122.375L46.6151 112.312C47.6375 111.831 48.6187 111.267 49.5489 110.626C49.8313 110.432 50.1136 110.229 50.3828 110.017C52.7192 108.23 54.6423 105.959 56.021 103.36C57.0632 101.363 57.7556 99.2026 58.068 96.9719C58.2835 95.5244 58.3926 94.0632 58.3945 92.5998C58.3945 91.0733 58.3548 89.5469 58.3019 88.0204C58.271 87.0233 58.2445 86.0219 58.2313 85.0248C58.2136 83.6278 58.1989 82.2292 58.1872 80.8292L59.0695 81.2704L61.3636 82.4572L62.4269 82.638L74.7269 84.7292L88.4563 87.0675L88.871 101.185L89.0077 105.8L89.0739 108.041V108.178L89.5151 108.363L94.3989 110.348L125.065 122.816Z" fill="#CDCDCD"/>
<path d="M89.0694 108.178C87.553 108.439 85.993 108.197 84.6267 107.49L58.3017 85.9734C58.2708 84.9763 58.2444 86.0175 58.2311 85.0204C58.2135 83.6234 58.1988 82.2248 58.187 80.8248L59.0694 81.266L61.3635 82.4528L62.4267 82.6337L74.7267 84.7248L88.4561 87.0631L88.8708 101.181L89.0076 105.795L89.0738 108.037V108.178H89.0694Z" fill="#BBBBBB"/>
<path d="M125.065 122.816C95.5733 145.524 54.4376 145.342 25.1475 122.375L46.6151 112.311C47.6375 111.831 48.6187 111.267 49.5489 110.626C49.8313 110.432 50.1136 110.229 50.3828 110.017C60.7725 117.411 74.9519 122.075 87.2166 116.556C90.1372 115.232 92.8195 113.097 94.4078 110.353L125.065 122.816Z" fill="url(#paint0_linear_596_629)"/>
<circle cx="53.8457" cy="68.4719" r="7.5" fill="#CDCDCD"/>
<circle cx="56.224" cy="68.4719" r="6.71471" fill="#BBBBBB"/>
<path d="M56.3253 61.4131L58.2665 86.5602L87.5783 103.687C91.7792 105.254 96.4838 103.38 98.4577 99.3543C102.675 90.7161 109.443 77.0749 108.552 72.0013C107.228 64.5013 103.699 61.8543 103.699 61.8543C104.19 58.9131 104.678 55.9808 105.164 53.0572C105.719 49.744 106.43 46.2852 105.605 42.9543C104.665 39.1337 102.51 36.7199 99.4062 34.6513C86.4448 26.01 62.7299 29.8347 58.1399 40.5448C55.1894 47.4296 56.3253 61.4131 56.3253 61.4131Z" fill="#CDCDCD"/>
<path d="M77.9959 60.4425C80.6871 60.4425 80.6871 64.5807 77.9959 64.6028H77.8724C75.1812 64.6028 75.1812 60.4646 77.8724 60.4425H77.9959Z" fill="#00214E"/>
<path d="M100.108 59.8293C102.609 59.8514 102.609 63.6676 100.108 63.6896H99.9973C97.5002 63.6896 97.5002 59.8514 99.9973 59.8293H100.108Z" fill="#00214E"/>
<path d="M89.2061 59.2469C89.1708 59.4014 95.1002 75.1867 95.1002 75.1867L87.1855 75.5705" stroke="#00214E" stroke-width="0.288352"/>
<path d="M70.4653 56.194C74.5496 55.3507 78.7504 55.2327 82.8756 55.8455" stroke="#00214E" stroke-width="0.288352"/>
<path d="M96.5166 56.2424C99.0383 55.6575 101.637 55.4773 104.215 55.7086" stroke="#00214E" stroke-width="0.288352"/>
<path d="M87.21 84.9173C91.0349 84.9147 93.3299 84.9147 96.4085 84.1497" stroke="#00214E" stroke-width="0.288352"/>
<defs>
<linearGradient id="paint0_linear_596_629" x1="25.1475" y1="139.721" x2="125.065" y2="139.721" gradientUnits="userSpaceOnUse">
<stop stop-color="#367CFF"/>
<stop offset="1" stop-color="#2F80ED"/>
</linearGradient>
</defs>
</svg>
