<svg width="194" height="30" viewBox="0 0 194 30" fill="none" xmlns="http://www.w3.org/2000/svg">
<path d="M15.352 11.128V12.472C15.352 12.9627 15.0427 13.4107 14.424 13.816L1.624 22.456C1.51733 22.52 1.37867 22.552 1.208 22.552C1.05867 22.552 0.92 22.488 0.792 22.36C0.664 22.232 0.6 22.072 0.6 21.88V16.696C0.6 16.44 0.664 16.216 0.792 16.024C0.941333 15.8107 1.05867 15.672 1.144 15.608C1.25067 15.544 1.41067 15.448 1.624 15.32L7.224 11.8L1.624 8.312C0.941333 7.90667 0.6 7.43733 0.6 6.904V1.72C0.6 1.528 0.664 1.368 0.792 1.24C0.92 1.112 1.05867 1.048 1.208 1.048C1.37867 1.048 1.51733 1.08 1.624 1.144L14.424 9.784C15.0427 10.1893 15.352 10.6373 15.352 11.128ZM44.416 1.464V14.584C44.416 17.4853 43.4453 19.672 41.504 21.144C39.584 22.5947 37.152 23.32 34.208 23.32C31.264 23.32 28.8 22.616 26.816 21.208C24.832 19.8 23.84 17.8907 23.84 15.48C23.84 15.288 23.904 15.128 24.032 15C24.1813 14.8507 24.352 14.776 24.544 14.776H31.072C31.4133 14.776 31.6693 14.8613 31.84 15.032C32.032 15.1813 32.224 15.4693 32.416 15.896C32.608 16.3013 32.832 16.6 33.088 16.792C33.3653 16.984 33.7493 17.08 34.24 17.08C35.4987 17.08 36.128 16.216 36.128 14.488V7.096H26.624C26.3893 7.096 26.1867 7.01067 26.016 6.84C25.8453 6.66933 25.76 6.46667 25.76 6.232V1.464C25.76 1.22933 25.8453 1.02667 26.016 0.855999C26.1867 0.685332 26.3893 0.599998 26.624 0.599998H43.552C43.7867 0.599998 43.9893 0.685332 44.16 0.855999C44.3307 1.02667 44.416 1.22933 44.416 1.464ZM47.7813 16.056V7.224C47.7813 6.98933 47.8666 6.78667 48.0373 6.616C48.2079 6.44533 48.4106 6.36 48.6453 6.36H54.7573C54.9919 6.36 55.1946 6.44533 55.3653 6.616C55.5359 6.78667 55.6213 6.98933 55.6213 7.224V15.832C55.6213 17.0053 56.1546 17.592 57.2213 17.592C58.2879 17.592 58.8213 17.0053 58.8213 15.832V7.224C58.8213 6.98933 58.9066 6.78667 59.0773 6.616C59.2479 6.44533 59.4506 6.36 59.6853 6.36H65.7653C65.9999 6.36 66.2026 6.44533 66.3733 6.616C66.5439 6.78667 66.6293 6.98933 66.6293 7.224V22.136C66.6293 22.3707 66.5439 22.5733 66.3733 22.744C66.2026 22.9147 65.9999 23 65.7653 23H60.1653C59.9306 23 59.7279 22.9147 59.5573 22.744C59.3866 22.5733 59.3013 22.3707 59.3013 22.136V21.08C58.2986 22.5733 56.5279 23.32 53.9893 23.32C52.2399 23.32 50.7679 22.712 49.5733 21.496C48.3786 20.2587 47.7813 18.4453 47.7813 16.056ZM105.969 16.056V7.224C105.969 6.98933 106.054 6.78667 106.225 6.616C106.395 6.44533 106.598 6.36 106.833 6.36H112.945C113.179 6.36 113.382 6.44533 113.553 6.616C113.723 6.78667 113.809 6.98933 113.809 7.224V15.832C113.809 17.0053 114.342 17.592 115.409 17.592C116.475 17.592 117.009 17.0053 117.009 15.832V7.224C117.009 6.98933 117.094 6.78667 117.265 6.616C117.435 6.44533 117.638 6.36 117.873 6.36H123.953C124.187 6.36 124.39 6.44533 124.561 6.616C124.731 6.78667 124.817 6.98933 124.817 7.224V22.136C124.817 22.3707 124.731 22.5733 124.561 22.744C124.39 22.9147 124.187 23 123.953 23H118.353C118.118 23 117.915 22.9147 117.745 22.744C117.574 22.5733 117.489 22.3707 117.489 22.136V21.08C116.486 22.5733 114.715 23.32 112.177 23.32C110.427 23.32 108.955 22.712 107.761 21.496C106.566 20.2587 105.969 18.4453 105.969 16.056ZM127.524 15.928V13.4C127.524 11.0107 128.164 9.18667 129.444 7.928C130.724 6.66933 132.281 6.04 134.116 6.04C135.972 6.04 137.454 6.54133 138.564 7.544V1.144C138.564 0.909333 138.649 0.706666 138.82 0.535999C138.99 0.365332 139.193 0.279999 139.428 0.279999H145.348C145.582 0.279999 145.785 0.365332 145.956 0.535999C146.126 0.706666 146.212 0.909333 146.212 1.144V22.136C146.212 22.3707 146.126 22.5733 145.956 22.744C145.785 22.9147 145.582 23 145.348 23H139.908C139.673 23 139.47 22.9147 139.3 22.744C139.129 22.5733 139.044 22.3707 139.044 22.136V21.176C137.934 22.6053 136.366 23.32 134.34 23.32C132.313 23.32 130.67 22.7227 129.412 21.528C128.153 20.312 127.524 18.4453 127.524 15.928ZM138.564 15.736V13.368C138.5 12.3013 137.966 11.768 136.964 11.768C135.897 11.768 135.364 12.3867 135.364 13.624V15.736C135.364 16.9733 135.897 17.592 136.964 17.592C138.03 17.592 138.564 16.9733 138.564 15.736ZM149.09 6.36H154.498C154.989 6.36 155.33 6.616 155.522 7.128L158.146 14.424L160.866 7.128C161.079 6.616 161.442 6.36 161.954 6.36H167.298C167.49 6.36 167.661 6.43467 167.81 6.584C167.959 6.712 168.034 6.85067 168.034 7C168.034 7.14933 168.023 7.26667 168.002 7.352L158.978 28.312C158.765 28.824 158.391 29.08 157.858 29.08H152.61C152.418 29.08 152.247 29.016 152.098 28.888C151.97 28.76 151.906 28.6 151.906 28.408C151.906 28.2373 151.917 28.1307 151.938 28.088L154.498 21.944L148.322 7.352C148.301 7.288 148.29 7.21333 148.29 7.128C148.375 6.616 148.642 6.36 149.09 6.36ZM170.485 19.736H193.045C193.28 19.736 193.483 19.8213 193.653 19.992C193.824 20.1627 193.909 20.3653 193.909 20.6V25.272C193.909 25.5067 193.824 25.7093 193.653 25.88C193.483 26.0507 193.28 26.136 193.045 26.136H170.485C170.251 26.136 170.048 26.0507 169.877 25.88C169.707 25.7093 169.621 25.5067 169.621 25.272V20.6C169.621 20.3653 169.707 20.1627 169.877 19.992C170.048 19.8213 170.251 19.736 170.485 19.736Z" fill="white"/>
<path d="M78.6802 18.392C78.6802 18.1787 78.6269 18.008 78.5202 17.88C78.2429 17.5387 77.2189 17.208 75.4482 16.888C73.6776 16.5467 72.2376 15.96 71.1282 15.128C70.0402 14.2747 69.4962 13.0907 69.4962 11.576C69.4962 10.0613 70.2216 8.76 71.6722 7.672C73.1229 6.584 75.0749 6.04 77.5282 6.04C80.0029 6.04 82.0296 6.552 83.6082 7.576C85.1869 8.6 85.9762 9.63467 85.9762 10.68C85.9762 10.9147 85.9016 11.1173 85.7522 11.288C85.6242 11.4587 85.4642 11.544 85.2722 11.544H79.8962C79.5762 11.544 79.1816 11.3733 78.7122 11.032C78.2429 10.6907 77.8909 10.52 77.6562 10.52C77.1656 10.52 76.9202 10.6907 76.9202 11.032C76.9202 11.2453 76.9736 11.416 77.0802 11.544C77.3576 11.864 78.5202 12.1733 80.5682 12.472C82.6162 12.7707 84.1416 13.432 85.1442 14.456C86.1682 15.4587 86.6802 16.5787 86.6802 17.816C86.6802 19.544 85.9016 20.8987 84.3442 21.88C82.7869 22.8613 80.5789 23.352 77.7202 23.352C76.2056 23.352 74.8616 23.1813 73.6882 22.84C72.5149 22.4987 71.6189 22.072 71.0002 21.56C69.7842 20.5573 69.1762 19.6187 69.1762 18.744C69.1762 18.5093 69.2509 18.3067 69.4002 18.136C69.5496 17.9653 69.7309 17.88 69.9442 17.88H75.5122C75.8109 17.88 76.1949 18.0507 76.6642 18.392C77.1549 18.712 77.6136 18.872 78.0402 18.872C78.4669 18.872 78.6802 18.712 78.6802 18.392ZM98.7287 11.96V15.48C98.7287 16.5467 99.1874 17.08 100.105 17.08H103.017C103.251 17.08 103.454 17.1653 103.625 17.336C103.795 17.5067 103.881 17.7093 103.881 17.944V22.136C103.881 22.3707 103.795 22.5733 103.625 22.744C103.454 22.9147 103.251 23 103.017 23H99.4007C94.0674 23 91.4007 20.7067 91.4007 16.12V11.96H88.8727C88.6381 11.96 88.4354 11.8747 88.2647 11.704C88.0941 11.5333 88.0087 11.3307 88.0087 11.096V7.224C88.0087 6.98933 88.0941 6.78667 88.2647 6.616C88.4354 6.44533 88.6381 6.36 88.8727 6.36H91.4007V1.144C91.4007 0.909333 91.4861 0.706666 91.6567 0.535999C91.8274 0.365332 92.0301 0.279999 92.2647 0.279999H97.8647C98.0994 0.279999 98.3021 0.365332 98.4727 0.535999C98.6434 0.706666 98.7287 0.909333 98.7287 1.144V6.36H102.761C102.995 6.36 103.198 6.44533 103.369 6.616C103.539 6.78667 103.625 6.98933 103.625 7.224V11.096C103.625 11.3307 103.539 11.5333 103.369 11.704C103.198 11.8747 102.995 11.96 102.761 11.96H98.7287Z" fill="#2F80ED"/>
</svg>
