<svg width="150" height="150" viewBox="0 0 150 150" fill="none" xmlns="http://www.w3.org/2000/svg">
<path d="M0 75C0 33.5786 33.5786 0 75 0C116.421 0 150 33.5786 150 75C150 116.421 116.421 150 75 150C33.5786 150 0 116.421 0 75Z" fill="#F1F1F1"/>
<path d="M125.065 118.685C95.5728 141.393 54.4371 141.211 25.147 118.244L46.6146 108.181C47.637 107.7 48.6182 107.136 49.5484 106.495C49.8308 106.301 50.1131 106.098 50.3823 105.887C52.7187 104.099 54.6419 101.828 56.0205 99.2292C57.0628 97.2324 57.7551 95.0717 58.0676 92.841C58.283 91.3936 58.3921 89.9323 58.394 88.469C58.394 85.9454 58.2573 83.4219 58.2308 80.894C58.2131 79.494 58.1984 78.0954 58.1867 76.6984L59.069 77.1395L61.3631 78.3263L62.4264 78.5072L74.7264 80.5984L88.4558 82.9366L88.8705 97.0542L89.0073 101.669L89.0734 103.91V104.056L94.4117 106.226L125.065 118.685Z" fill="#DE8276"/>
<path d="M88.9854 103.178C87.4691 103.439 85.909 103.197 84.5427 102.49L58.2177 80.9689C58.1869 79.9719 58.1604 81.0175 58.1471 80.0204C58.1295 78.6204 58.1148 77.2219 58.103 75.8248L58.9854 76.266L61.2795 77.4528L62.3427 77.6337L74.6427 79.7248L88.3721 82.0631L88.7868 96.1807L88.9236 100.795L88.9898 103.037V103.182L88.9854 103.178Z" fill="#A76962"/>
<path d="M102.574 64.8174C101.888 65.5349 101.136 66.1862 100.328 66.763C95.7397 70.0851 89.6162 71.1748 84.3839 72.966C82.178 73.7204 58.2574 80.5189 58.2574 81.9969C58.2574 81.6748 55.9147 79.3498 52.9633 76.5263C42.7834 66.7764 39.3896 51.8999 44.3339 38.6998C49.1471 26.0513 64.4912 17.3336 77.3427 15.3174C83.4618 14.3601 90.7236 13.8263 96.375 16.7601C99.2647 18.2645 101.669 20.4571 103.875 22.888C104.563 23.6557 105.231 24.4395 105.878 25.2395C106.156 25.5748 106.429 25.9101 106.699 26.2498C116.744 38.8674 113.184 53.6689 102.574 64.8174Z" fill="url(#paint0_linear_582_978)"/>
<path d="M102.573 64.8175C101.888 65.5349 101.136 66.1863 100.328 66.7631C100.14 66.4348 99.9701 66.096 99.8206 65.7484C98.6558 63.1013 98.0558 60.2293 97.6147 57.366C96.9276 53.1991 96.4579 48.9994 96.2073 44.7837C95.8058 38.016 92.9161 34.6587 98.6647 29.3822C100.733 27.4863 103.197 26.0729 105.878 25.244C106.156 25.5793 106.429 25.9145 106.698 26.2543C116.744 38.8675 113.184 53.669 102.573 64.8175Z" fill="url(#paint1_linear_582_978)"/>
<circle cx="53.8457" cy="64.3542" r="7.5" fill="#E18477"/>
<ellipse cx="56.2279" cy="64.3541" rx="6.71471" ry="6.71471" fill="#A76962"/>
<path d="M56.7883 57.2425C57.1545 62.0336 57.1413 67.8836 57.2692 69.5954C57.6016 73.8866 57.931 78.1763 58.2574 82.4645L87.5692 99.5866C91.7762 101.159 96.4893 99.278 98.4574 95.241C102.675 86.6028 109.443 72.9616 108.552 67.8881C107.228 60.3881 103.699 57.741 103.699 57.741L105.168 48.9439C106.655 40.0013 103.588 31.5351 93.1413 30.5557C90.9354 30.3528 88.478 30.7719 87.1677 32.5322C83.6383 37.2792 85.6721 43.1204 80.3736 47.5322C73.9413 52.8395 59.5898 55.1557 56.228 50.8719C56.228 50.8719 56.5369 53.9028 56.7883 57.2425Z" fill="#DE8276"/>
<path d="M78.7852 75.9571C80.9049 78.3243 83.8108 79.8431 86.9646 80.2321" stroke="#00214E" stroke-width="0.288352"/>
<path d="M89.2056 55.1292C89.1704 55.2836 95.0998 71.0689 95.0998 71.0689L87.1851 71.4527" stroke="#00214E" stroke-width="0.288352"/>
<path d="M70.4648 52.0675C74.5489 51.2228 78.7497 51.1033 82.8751 51.7145" stroke="#00214E" stroke-width="0.288352"/>
<path d="M96.5161 52.1249C99.0374 51.5374 101.636 51.3572 104.215 51.591" stroke="#00214E" stroke-width="0.288352"/>
<path d="M125.065 118.685C95.5728 141.393 54.4371 141.211 25.147 118.244L46.6146 108.181C47.637 107.7 48.6182 107.136 49.5484 106.495C49.8308 106.301 50.1131 106.098 50.3823 105.887C52.7187 104.099 54.6419 101.828 56.0205 99.2292C57.0628 97.2323 57.7551 95.0717 58.0676 92.8409C58.3791 93.1429 58.706 93.4285 59.047 93.6968C61.7521 95.6972 64.6878 97.365 67.7911 98.6645C69.2977 99.2929 70.8383 99.8364 72.4058 100.292C77.1282 101.669 82.0587 102.191 86.9646 101.832C87.644 101.779 88.3279 101.713 89.0073 101.664L89.0734 103.906V104.051L94.4117 106.222L125.065 118.685Z" fill="#00214E"/>
<path d="M76.4777 57.0264C79.1689 57.0264 79.1689 61.1646 76.4777 61.1867H76.3542C73.6586 61.1867 73.6586 57.0484 76.3542 57.0264H76.4733H76.4777Z" fill="#00214E"/>
<path d="M98.5939 56.4131C101.091 56.4351 101.091 60.2513 98.5939 60.2734H98.4792C95.9822 60.2734 95.9822 56.4351 98.4792 56.4131H98.5939Z" fill="#00214E"/>
<defs>
<linearGradient id="paint0_linear_582_978" x1="42.0662" y1="82.014" x2="112.646" y2="82.014" gradientUnits="userSpaceOnUse">
<stop stop-color="#16243F"/>
<stop offset="1" stop-color="#6878B1"/>
</linearGradient>
<linearGradient id="paint1_linear_582_978" x1="83.6338" y1="52.5375" x2="113.227" y2="60.9332" gradientUnits="userSpaceOnUse">
<stop stop-color="#16243F"/>
<stop offset="1" stop-color="#6878B1"/>
</linearGradient>
</defs>
</svg>
