<svg width="377" height="457" viewBox="0 0 377 457" fill="none" xmlns="http://www.w3.org/2000/svg">
<path d="M353.572 7.8097L11.2666 18.6476L25.1102 448.953L367.416 438.115L353.572 7.8097Z" fill="#292A2E"/>
<path opacity="0.58" d="M353.572 7.8097L11.2666 18.6476L25.1102 448.953L367.416 438.115L353.572 7.8097Z" fill="white"/>
<path d="M341.051 0.314185L0.317383 28.1997L35.9494 456.685L376.683 428.8L341.051 0.314185Z" fill="white"/>
<path d="M340.782 0.629605L376.368 428.534L36.2178 456.37L0.634656 28.4664L340.785 0.629605H340.782ZM341.32 0L0 27.9331L35.6796 457L377 429.067L341.32 0Z" fill="black"/>
<path d="M317.873 30.474L162.353 43.2018L163.28 54.3579L318.801 41.6302L317.873 30.474Z" fill="#292A2E"/>
<path d="M320.514 60.8431L164.934 73.5372L164.982 74.119L320.563 61.4248L320.514 60.8431Z" fill="black"/>
<path d="M322.219 81.3301L166.638 94.0243L166.686 94.606L322.267 81.9119L322.219 81.3301Z" fill="black"/>
<path d="M323.923 101.818L168.342 114.512L168.39 115.094L323.971 102.4L323.923 101.818Z" fill="black"/>
<path d="M325.626 122.305L170.045 134.999L170.093 135.581L325.674 122.887L325.626 122.305Z" fill="black"/>
<path d="M241.624 149.797L171.75 155.498L171.798 156.08L241.672 150.379L241.624 149.797Z" fill="black"/>
<path d="M329.921 175.346L40.2119 199.055L41.1396 210.211L330.849 186.502L329.921 175.346Z" fill="#292A2E"/>
<path d="M189.389 338.611L71.1357 348.259L71.184 348.841L189.438 339.192L189.389 338.611Z" fill="black"/>
<path d="M191.395 362.722L73.1416 372.37L73.1898 372.952L191.444 363.303L191.395 362.722Z" fill="black"/>
<path d="M193.4 386.832L75.1465 396.481L75.1947 397.063L193.448 387.414L193.4 386.832Z" fill="black"/>
<path d="M195.405 410.944L77.1514 420.593L77.1996 421.174L195.453 411.526L195.405 410.944Z" fill="black"/>
<path d="M58.8226 353.995C62.2579 353.995 65.0427 351.232 65.0427 347.824C65.0427 344.416 62.2579 341.654 58.8226 341.654C55.3874 341.654 52.6025 344.416 52.6025 347.824C52.6025 351.232 55.3874 353.995 58.8226 353.995Z" fill="#292A2E"/>
<path d="M64.9691 427.912C68.4044 427.912 71.1892 425.149 71.1892 421.741C71.1892 418.333 68.4044 415.57 64.9691 415.57C61.5339 415.57 58.749 418.333 58.749 421.741C58.749 425.149 61.5339 427.912 64.9691 427.912Z" fill="#292A2E"/>
<path d="M62.9652 403.809C66.4005 403.809 69.1853 401.046 69.1853 397.638C69.1853 394.23 66.4005 391.468 62.9652 391.468C59.53 391.468 56.7451 394.23 56.7451 397.638C56.7451 401.046 59.53 403.809 62.9652 403.809Z" fill="#292A2E"/>
<path d="M60.8939 378.902C64.3292 378.902 67.114 376.139 67.114 372.731C67.114 369.323 64.3292 366.561 60.8939 366.561C57.4587 366.561 54.6738 369.323 54.6738 372.731C54.6738 376.139 57.4587 378.902 60.8939 378.902Z" fill="#292A2E"/>
<path d="M342.572 326.074L224.318 335.722L224.367 336.304L342.62 326.655L342.572 326.074Z" fill="black"/>
<path d="M344.577 350.185L226.323 359.834L226.371 360.416L344.625 350.767L344.577 350.185Z" fill="black"/>
<path d="M346.582 374.296L228.328 383.944L228.376 384.526L346.63 374.878L346.582 374.296Z" fill="black"/>
<path d="M348.588 398.408L230.334 408.056L230.382 408.638L348.636 398.989L348.588 398.408Z" fill="black"/>
<path d="M211.949 341.463C215.384 341.463 218.169 338.7 218.169 335.292C218.169 331.885 215.384 329.122 211.949 329.122C208.513 329.122 205.729 331.885 205.729 335.292C205.729 338.7 208.513 341.463 211.949 341.463Z" fill="#292A2E"/>
<path d="M218.095 415.379C221.53 415.379 224.315 412.617 224.315 409.209C224.315 405.801 221.53 403.038 218.095 403.038C214.66 403.038 211.875 405.801 211.875 409.209C211.875 412.617 214.66 415.379 218.095 415.379Z" fill="#292A2E"/>
<path d="M216.091 391.278C219.526 391.278 222.311 388.515 222.311 385.107C222.311 381.699 219.526 378.937 216.091 378.937C212.656 378.937 209.871 381.699 209.871 385.107C209.871 388.515 212.656 391.278 216.091 391.278Z" fill="#292A2E"/>
<path d="M214.02 366.371C217.455 366.371 220.24 363.608 220.24 360.2C220.24 356.792 217.455 354.03 214.02 354.03C210.585 354.03 207.8 356.792 207.8 360.2C207.8 363.608 210.585 366.371 214.02 366.371Z" fill="#292A2E"/>
<path d="M91.4215 110.341C102.729 110.341 111.896 101.247 111.896 90.0295C111.896 78.8118 102.729 69.7181 91.4215 69.7181C80.1139 69.7181 70.9473 78.8118 70.9473 90.0295C70.9473 101.247 80.1139 110.341 91.4215 110.341Z" fill="#367CFF"/>
<path d="M142.702 140.146C137.675 147.578 131.025 153.79 123.245 158.322C115.466 162.854 106.758 165.59 97.7668 166.325C88.7758 167.061 79.7333 165.778 71.3106 162.572C62.8878 159.366 55.3013 154.319 49.1143 147.806C53.9842 140.179 60.5711 133.776 68.357 129.102C76.1429 124.427 84.9157 121.608 93.9856 120.866C103.055 120.124 112.175 121.478 120.628 124.824C129.081 128.169 136.636 133.414 142.7 140.146H142.702Z" fill="#367CFF"/>
<path d="M92.8961 47.9182C108.244 47.9347 122.991 53.8351 134.055 64.3863C145.12 74.9375 151.645 89.3228 152.268 104.536C152.891 119.748 147.563 134.611 137.397 146.018C127.231 157.424 113.015 164.492 97.7192 165.742C96.0723 165.877 94.4048 165.946 92.7614 165.946C77.4139 165.929 62.6668 160.029 51.6022 149.477C40.5377 138.926 34.0121 124.541 33.3894 109.328C32.7666 94.1153 38.095 79.2525 48.2607 67.846C58.4264 56.4395 72.6427 49.3722 87.9382 48.1213C89.5852 47.9865 91.2515 47.9182 92.8967 47.9182H92.8961ZM92.8967 47.3347C91.2415 47.3347 89.5699 47.4024 87.8912 47.5395C80.0288 48.1824 72.371 50.3553 65.3551 53.9343C58.3393 57.5132 52.1027 62.428 47.0016 68.3981C41.9004 74.3682 38.0346 81.2766 35.6249 88.7288C33.2152 96.1811 32.3087 104.031 32.9573 111.831C34.1957 126.726 41.0304 140.616 52.1065 150.747C63.1827 160.878 77.6916 166.511 92.7573 166.529C94.4128 166.529 96.0815 166.461 97.7634 166.324C105.625 165.68 113.283 163.507 120.298 159.928C127.314 156.349 133.55 151.434 138.651 145.464C143.751 139.494 147.617 132.586 150.026 125.134C152.436 117.682 153.342 109.832 152.694 102.032C151.455 87.1369 144.62 73.2471 133.544 63.116C122.468 52.985 107.959 47.3523 92.8932 47.3347H92.8967Z" fill="black"/>
<path d="M332.807 208.647L42.9854 232.294L43.0336 232.875L332.855 209.228L332.807 208.647Z" fill="black"/>
<path d="M334.385 229.035L44.6729 252.704L44.7211 253.285L334.434 229.616L334.385 229.035Z" fill="black"/>
<path d="M336.09 249.515L46.377 273.185L46.4252 273.766L336.138 250.096L336.09 249.515Z" fill="black"/>
<path d="M337.792 269.995L48.0791 293.665L48.1273 294.246L337.84 270.576L337.792 269.995Z" fill="black"/>
<path d="M119.676 308.571L49.8027 314.272L49.851 314.853L119.725 309.152L119.676 308.571Z" fill="black"/>
<path d="M38.9641 5.96926C41.1831 6.29317 43.1907 7.45369 44.5688 9.20919C45.9469 10.9647 46.5893 13.1799 46.3624 15.3935L43.2861 48.3617C43.1315 50.0909 42.2912 51.6885 40.9498 52.8034C39.6085 53.9183 37.8758 54.4594 36.1326 54.3076C34.4494 54.1218 32.9068 53.2887 31.8359 51.9872C30.765 50.6857 30.2512 49.0195 30.4048 47.3464L33.5687 13.4492C33.6553 12.3871 34.136 11.3945 34.9178 10.6636C35.6995 9.93272 36.7267 9.51544 37.8007 9.49248C38.3938 9.4908 38.9807 9.61197 39.524 9.84823C40.0672 10.0845 40.5547 10.4307 40.9553 10.8646C41.3559 11.2985 41.6608 11.8105 41.8505 12.368C42.0402 12.9256 42.1104 13.5162 42.0568 14.1022L39.8364 37.8965C39.8096 38.183 39.6691 38.4472 39.446 38.631C39.2229 38.8148 38.9353 38.9032 38.6465 38.8768C38.5034 38.8636 38.3642 38.8226 38.2371 38.756C38.11 38.6894 37.9973 38.5986 37.9056 38.4888C37.8139 38.379 37.7449 38.2524 37.7026 38.1161C37.6602 37.9798 37.6454 37.8366 37.6589 37.6946L39.8705 13.9942C39.928 13.4763 39.7907 12.9556 39.4851 12.5319C39.1794 12.1082 38.7269 11.8113 38.2142 11.6981C37.9303 11.6437 37.6381 11.6488 37.3564 11.7131C37.0746 11.7775 36.8096 11.8995 36.5782 12.0716C36.3469 12.2436 36.1544 12.4617 36.0131 12.7119C35.8718 12.9622 35.7849 13.239 35.7579 13.5245L32.594 47.4228C32.4821 48.487 32.7721 49.5544 33.4078 50.4187C34.0435 51.283 34.9798 51.8825 36.0355 52.1014C36.6208 52.2118 37.2229 52.1997 37.8033 52.0659C38.3836 51.9321 38.9293 51.6795 39.4055 51.3243C39.8818 50.9691 40.2779 50.5192 40.5687 50.0033C40.8594 49.4874 41.0383 48.9169 41.094 48.3284L44.1902 15.1525C44.3564 13.4439 43.8322 11.7397 42.7326 10.4143C41.633 9.08887 40.0481 8.2507 38.3259 8.08389C36.6562 7.96082 35.0044 8.49245 33.7255 9.56455C32.4466 10.6366 31.6427 12.1637 31.4865 13.8174L28.8296 42.2792C28.8164 42.421 28.7752 42.5589 28.7082 42.6849C28.6413 42.8108 28.55 42.9225 28.4396 43.0135C28.3291 43.1045 28.2017 43.173 28.0645 43.2151C27.9274 43.2572 27.7832 43.2721 27.6403 43.2589C27.4973 43.2459 27.3583 43.205 27.2312 43.1387C27.1042 43.0723 26.9915 42.9817 26.8997 42.8722C26.808 42.7626 26.7389 42.6361 26.6964 42.5001C26.6539 42.364 26.6389 42.2209 26.6521 42.0791L29.3084 13.6173C29.4161 12.4782 29.7541 11.3723 30.3022 10.3656C30.8503 9.359 31.5973 8.47227 32.4985 7.75841C33.3998 7.04455 34.4368 6.5182 35.5477 6.2108C36.6586 5.90339 37.8205 5.82124 38.9641 5.96926Z" fill="#367CFF"/>
</svg>
