<svg width="36" height="36" viewBox="0 0 36 36" fill="none" xmlns="http://www.w3.org/2000/svg">
<path d="M0 18C0 8.05887 8.05887 0 18 0V0C27.9411 0 36 8.05887 36 18V18C36 27.9411 27.9411 36 18 36V36C8.05887 36 0 27.9411 0 18V18Z" fill="#F1F1F1"/>
<path d="M30.0156 29.4759C22.9376 34.9258 13.065 34.8822 6.0354 29.37L11.1876 26.9548C11.433 26.8395 11.6685 26.7042 11.8918 26.5503C11.9595 26.5038 12.0273 26.455 12.0919 26.4042C12.6526 25.9752 13.1142 25.4302 13.445 24.8065C13.6952 24.3272 13.8614 23.8087 13.9363 23.2733C13.9881 22.9259 14.0142 22.5752 14.0147 22.224C14.0147 21.8576 14.0052 21.4913 13.9925 21.1249C13.985 20.8856 13.9787 20.6453 13.9755 20.406C13.9713 20.0707 13.9678 19.735 13.9649 19.399L14.1767 19.5049L14.7273 19.7898L14.9825 19.8332L17.9345 20.335L21.2295 20.8962L21.3291 24.2845L21.3619 25.392L21.3778 25.9299V25.9627L21.4836 26.0072L22.6558 26.4836L30.0156 29.4759Z" fill="#F2A196"/>
<path d="M21.3766 25.9627C20.9848 26.0082 20.3178 25.8568 19.9493 25.6567C18.5728 24.8964 17.8857 24.2802 17.1561 23.7423C16.2879 23.1007 14.0008 21.0423 14.0008 21.0423C13.9934 20.803 13.9786 20.6442 13.9754 20.407C13.9712 20.0717 13.9677 19.7361 13.9648 19.4001L14.1766 19.506L14.7272 19.7908L14.9824 19.8342L17.9344 20.3361L21.2294 20.8973L21.329 24.2855L21.3618 25.393L21.3777 25.9309V25.9627H21.3766Z" fill="#E88870"/>
<path d="M30.0156 29.4758C22.9376 34.9257 13.065 34.8821 6.0354 29.3699L11.1876 26.9548C11.433 26.8394 11.6685 26.7041 11.8918 26.5503C11.9595 26.5037 12.0273 26.455 12.0919 26.4042C14.5854 28.1788 17.9885 29.2979 20.932 27.9734C21.6329 27.6557 22.2767 27.1432 22.6579 26.4846L30.0156 29.4758Z" fill="#367CFF"/>
<path d="M28.1202 8.26975C28.1107 8.33222 28.0991 8.39363 28.0853 8.45504C28.0118 8.76984 27.8938 9.07254 27.7348 9.35398L27.7264 9.36881C27.666 9.47469 27.6014 9.58057 27.5315 9.68645C27.3461 9.95827 27.1438 10.2182 26.9259 10.4647L26.7957 10.6097C26.7078 10.7082 26.6188 10.8046 26.5299 10.8999C27.0011 10.794 27.4574 11.2334 27.5411 11.7077C27.6247 12.1821 27.4352 12.6607 27.2012 13.0842C26.7914 13.8339 26.2006 14.3326 25.6807 14.9837C25.2911 15.4687 25.0751 16.0426 24.6505 16.5063L24.6187 16.5413C23.4974 17.7187 21.7271 17.994 20.2532 18.4969C19.7238 18.679 13.9828 20.3096 13.9828 20.6654C13.9828 20.5881 13.4206 20.0301 12.7122 19.3514C10.1711 16.9383 9.33565 13.2102 10.8477 10.0126C12.4729 6.57139 16.164 4.11598 19.6793 2.93645C20.7784 2.56798 22.0257 2.32022 23.0675 2.83057C24.1094 3.34092 24.6282 4.92387 23.7642 5.69681C24.3077 5.28566 24.9836 5.08926 25.6627 5.14516C26.29 5.18446 26.8816 5.45052 27.3272 5.89375C27.6802 6.24836 27.9339 6.6894 28.0631 7.17281C28.1588 7.5304 28.1783 7.90413 28.1202 8.26975V8.26975Z" fill="#845161"/>
<path d="M28.1203 8.26976C28.1107 8.33223 28.0991 8.39364 28.0853 8.45505C28.0758 8.47305 28.0663 8.49211 28.0567 8.51329C27.9371 8.78646 27.882 9.08082 27.7391 9.35399L27.7306 9.36882C27.6703 9.4747 27.6057 9.58058 27.5358 9.68646C27.3522 9.95959 27.1498 10.2196 26.9301 10.4647L26.7957 10.6098C26.7078 10.7082 26.6189 10.8046 26.5299 10.8999C27.0011 10.794 27.4574 11.2334 27.5411 11.7078C27.6247 12.1821 27.4352 12.6607 27.2012 13.0842C26.7914 13.8339 26.2006 14.3326 25.6807 14.9838C25.2911 15.4687 25.0751 16.0426 24.6505 16.5063C24.1576 15.9201 23.8437 15.2045 23.7463 14.4448C23.5726 13.0408 23.6785 11.5108 23.6309 10.0899C23.6012 9.19623 23.3132 9.03105 23.849 8.30787C24.2798 7.77635 24.7781 7.3033 25.3313 6.9007C25.7633 6.61587 26.3192 6.5714 26.8349 6.64446C27.2842 6.7059 27.7081 6.88897 28.061 7.17387C28.1573 7.53098 28.1775 7.90434 28.1203 8.26976Z" fill="#69303A"/>
<circle cx="12.923" cy="16.4332" r="1.8" fill="#F2A196"/>
<ellipse cx="13.4939" cy="16.4332" rx="1.61153" ry="1.61153" fill="#E88870"/>
<path d="M13.5181 14.7391L13.9818 20.5627L21.0167 24.8911C22.0271 25.2675 23.1582 24.8147 23.6298 23.845C24.1657 22.751 24.6305 21.6234 25.0211 20.4695C25.3007 19.6394 25.5738 18.787 25.6003 17.904C25.6268 17.0209 25.3758 16.104 25.0709 15.2887C25.0391 15.2029 24.8697 14.9393 24.8845 14.8493C25.0024 14.1434 25.1196 13.4396 25.2361 12.738C25.3695 11.9428 25.5399 11.1127 25.3419 10.3133C25.1164 9.39632 24.4239 9.00562 23.8543 8.32056C22.355 10.2519 19.8901 11.3435 17.7375 12.45C16.631 13.0217 13.5181 14.7391 13.5181 14.7391Z" fill="#F2A196"/>
<path d="M25.2149 19.8745C24.7585 21.666 24.2535 23.5115 23.8776 24.1743C23.5959 24.6688 23.2031 24.7641 22.5816 24.9155C21.0224 25.2724 19.3852 24.9263 18.1038 23.9689L13.9649 20.6358C13.9013 20.0121 13.859 19.9168 13.8283 19.29C13.8135 19.0062 13.7224 18.7225 13.7902 18.4429C13.8088 18.5898 13.8715 18.7275 13.9702 18.8379C14.471 19.5176 15.0555 20.2853 15.8877 20.5648C16.7559 20.856 17.7438 20.9015 18.5824 20.4907C19.3119 20.1328 20.0266 19.6659 20.7879 19.3715C21.2943 19.1624 21.8407 19.0681 22.3878 19.0952C23.165 19.1481 23.4975 19.4986 24.0661 19.9613C24.2524 20.1138 24.461 20.2726 24.7013 20.2789C24.9724 20.2736 24.9862 20.0492 25.2149 19.8745Z" fill="#845161"/>
<path d="M18.7191 14.5062C19.365 14.5062 19.365 15.4994 18.7191 15.5047H18.6895C18.0436 15.5047 18.0436 14.5115 18.6895 14.5062H18.7191Z" fill="#00214E"/>
<path d="M24.026 14.3591C24.6263 14.3644 24.6263 15.2802 24.026 15.2855H23.9995C23.4002 15.2855 23.4002 14.3644 23.9995 14.3591H24.026Z" fill="#00214E"/>
<path d="M21.4095 14.2193C21.401 14.2564 22.8241 18.0448 22.8241 18.0448L20.9246 18.1369" stroke="#00214E" stroke-width="0.288352"/>
<path d="M16.9116 13.4865C17.8918 13.2841 18.9 13.2558 19.8901 13.4029" stroke="#00214E" stroke-width="0.288352"/>
<path d="M23.1641 13.4982C23.7693 13.3579 24.3929 13.3146 25.0117 13.3701" stroke="#00214E" stroke-width="0.288352"/>
<path d="M20.8155 20.1392C21.4106 20.345 22.0556 20.3569 22.6579 20.1731C22.7225 20.1529 22.6949 20.0502 22.6304 20.0672C22.0465 20.2461 21.421 20.2346 20.8441 20.0343C20.7795 20.0121 20.752 20.1138 20.8155 20.1402V20.1392Z" fill="#F2A196"/>
</svg>
