<svg width="36" height="36" viewBox="0 0 36 36" fill="none" xmlns="http://www.w3.org/2000/svg">
<path d="M0 18C0 8.05887 8.05887 0 18 0V0C27.9411 0 36 8.05887 36 18V18C36 27.9411 27.9411 36 18 36V36C8.05887 36 0 27.9411 0 18V18Z" fill="#F1F1F1"/>
<path d="M30.0156 28.4844C22.9376 33.9343 13.065 33.8907 6.0354 28.3785L11.1876 25.9634C11.433 25.848 11.6685 25.7127 11.8918 25.5589C11.9595 25.5123 12.0273 25.4636 12.0919 25.4128C12.6526 24.9837 13.1142 24.4387 13.445 23.815C13.6952 23.3358 13.8614 22.8172 13.9363 22.2818C13.988 21.9344 14.0142 21.5837 14.0147 21.2325C14.0147 20.6269 13.9819 20.0212 13.9755 19.4145C13.9713 19.0785 13.9678 18.7429 13.9649 18.4076L14.1767 18.5135L14.7273 18.7983L14.9825 18.8417L17.9345 19.3436L21.2295 19.9048L21.329 23.293L21.3619 24.4005L21.3778 24.9384V24.9734L22.6589 25.4943L30.0156 28.4844Z" fill="#DE8276"/>
<path d="M21.3566 24.7626C20.9927 24.8253 20.6183 24.7673 20.2904 24.5975L13.9724 19.4325C13.9649 19.1932 13.9586 19.4442 13.9554 19.2049C13.9512 18.8689 13.9476 18.5332 13.9448 18.1979L14.1566 18.3038L14.7072 18.5886L14.9624 18.6321L17.9144 19.1339L21.2094 19.6951L21.3089 23.0833L21.3418 24.1909L21.3576 24.7288V24.7637L21.3566 24.7626Z" fill="#A76962"/>
<path d="M24.6177 15.5562C24.4531 15.7283 24.2726 15.8847 24.0787 16.0231C22.9776 16.8204 21.5079 17.0819 20.2522 17.5118C19.7227 17.6929 13.9818 19.3245 13.9818 19.6792C13.9818 19.6019 13.4196 19.0439 12.7112 18.3663C10.268 16.0263 9.45354 12.456 10.6402 9.28793C11.7953 6.25228 15.4779 4.16004 18.5623 3.67616C20.0309 3.4464 21.7737 3.31828 23.13 4.0224C23.8236 4.38346 24.4006 4.90969 24.93 5.4931C25.0952 5.67734 25.2554 5.86546 25.4107 6.05746C25.4774 6.13793 25.5431 6.2184 25.6077 6.29993C28.0186 9.32816 27.1642 12.8805 24.6177 15.5562Z" fill="url(#paint0_linear_458_2507)"/>
<path d="M24.6177 15.5562C24.4531 15.7284 24.2727 15.8847 24.0788 16.0231C24.0336 15.9443 23.9929 15.863 23.957 15.7796C23.6775 15.1443 23.5335 14.455 23.4276 13.7678C23.2627 12.7678 23.15 11.7598 23.0899 10.7481C22.9935 9.12383 22.3 8.31806 23.6796 7.05171C24.1761 6.59669 24.7674 6.25748 25.4108 6.05853C25.4775 6.139 25.5431 6.21947 25.6077 6.301C28.0187 9.32818 27.1642 12.8805 24.6177 15.5562Z" fill="url(#paint1_linear_458_2507)"/>
<ellipse cx="12.923" cy="15.445" rx="1.8" ry="1.8" fill="#E18477"/>
<ellipse cx="13.4948" cy="15.445" rx="1.61153" ry="1.61153" fill="#A76962"/>
<path d="M13.6293 13.7382C13.7172 14.888 13.714 16.292 13.7448 16.7029C13.8245 17.7328 13.9036 18.7623 13.9819 19.7915L21.0168 23.9008C22.0264 24.2781 23.1576 23.8267 23.6299 22.8578C24.6422 20.7846 26.2664 17.5108 26.0525 16.2931C25.7349 14.4931 24.8878 13.8578 24.8878 13.8578L25.2404 11.7465C25.5972 9.60028 24.8613 7.5684 22.354 7.33334C21.8246 7.28463 21.2349 7.38522 20.9204 7.80769C20.0733 8.94699 20.5615 10.3489 19.2898 11.4077C17.746 12.6815 14.3017 13.2373 13.4949 12.2092C13.4949 12.2092 13.569 12.9366 13.6293 13.7382Z" fill="#DE8276"/>
<path d="M18.9087 18.2297C19.4174 18.7978 20.1149 19.1623 20.8717 19.2557" stroke="#00214E" stroke-width="0.288352"/>
<path d="M21.4095 13.231C21.401 13.268 22.8241 17.0565 22.8241 17.0565L20.9246 17.1486" stroke="#00214E" stroke-width="0.288352"/>
<path d="M16.9116 12.4962C17.8918 12.2934 18.9 12.2648 19.8901 12.4115" stroke="#00214E" stroke-width="0.288352"/>
<path d="M23.1641 12.51C23.7692 12.369 24.3929 12.3257 25.0117 12.3818" stroke="#00214E" stroke-width="0.288352"/>
<path d="M30.0156 28.4844C22.9376 33.9343 13.065 33.8907 6.0354 28.3785L11.1876 25.9633C11.433 25.848 11.6685 25.7127 11.8918 25.5589C11.9595 25.5123 12.0273 25.4636 12.0919 25.4127C12.6526 24.9837 13.1142 24.4387 13.445 23.815C13.6952 23.3357 13.8614 22.8172 13.9363 22.2818C14.0111 22.3543 14.0896 22.4228 14.1714 22.4872C14.8206 22.9673 15.5252 23.3676 16.27 23.6794C16.6316 23.8303 17.0013 23.9607 17.3775 24.0702C18.5109 24.4006 19.6942 24.5258 20.8716 24.4397C21.0347 24.427 21.1988 24.4111 21.3619 24.3994L21.3778 24.9373V24.9723L22.6589 25.4932L30.0156 28.4844Z" fill="#00214E"/>
<path d="M18.3547 13.6863C19.0006 13.6863 19.0006 14.6795 18.3547 14.6848H18.3251C17.6781 14.6848 17.6781 13.6916 18.3251 13.6863H18.3536H18.3547Z" fill="#00214E"/>
<path d="M23.6628 13.5391C24.2621 13.5444 24.2621 14.4603 23.6628 14.4656H23.6353C23.036 14.4656 23.036 13.5444 23.6353 13.5391H23.6628Z" fill="#00214E"/>
<defs>
<linearGradient id="paint0_linear_458_2507" x1="10.0959" y1="19.6833" x2="27.035" y2="19.6833" gradientUnits="userSpaceOnUse">
<stop stop-color="#16243F"/>
<stop offset="1" stop-color="#6878B1"/>
</linearGradient>
<linearGradient id="paint1_linear_458_2507" x1="20.0722" y1="12.609" x2="27.1745" y2="14.624" gradientUnits="userSpaceOnUse">
<stop stop-color="#16243F"/>
<stop offset="1" stop-color="#6878B1"/>
</linearGradient>
</defs>
</svg>
