<svg width="26" height="26" viewBox="0 0 26 26" fill="none" xmlns="http://www.w3.org/2000/svg">
<path d="M13.9362 0.830211C13.6118 -0.0349573 12.388 -0.034959 12.0636 0.83021L9.15952 8.57439C9.05811 8.84482 8.84474 9.05819 8.57431 9.1596L0.830131 12.0637C-0.0350374 12.3881 -0.0350391 13.6119 0.83013 13.9363L8.57431 16.8404C8.84474 16.9418 9.05811 17.1552 9.15952 17.4256L12.0636 25.1698C12.388 26.035 13.6118 26.035 13.9362 25.1698L16.8403 17.4256C16.9417 17.1552 17.1551 16.9418 17.4255 16.8404L25.1697 13.9363C26.0349 13.6119 26.0349 12.3881 25.1697 12.0637L17.4255 9.1596C17.1551 9.05819 16.9417 8.84482 16.8403 8.57439L13.9362 0.830211Z" fill="#2F80ED"/>
</svg>
